{"glyphs":{"0":{"ha":1356,"x_min":0,"x_max":1242,"o":"m 469 973 l 774 973 q 1193 704 1031 973 q 1242 484 1242 589 q 923 25 1242 180 q 789 0 830 0 l 464 0 q 140 144 291 0 q 0 489 0 290 q 300 938 0 785 q 469 973 392 973 m 125 484 q 374 140 125 252 q 469 125 437 125 l 774 125 q 1078 324 959 125 q 1118 489 1118 410 q 913 813 1118 692 q 758 848 838 848 l 469 848 q 165 654 288 848 q 125 484 125 562 z "},"1":{"ha":746,"x_min":0,"x_max":624,"o":"m 0 973 l 414 973 l 414 125 l 624 125 l 624 0 l 0 0 l 0 125 l 290 125 l 290 848 l 0 848 l 0 973 z "},"2":{"ha":1187,"x_min":0,"x_max":1033,"o":"m 0 973 l 1033 973 l 1033 489 l 125 489 l 125 454 q 314 144 125 231 q 414 125 368 125 l 1033 125 l 1033 0 l 394 0 q 70 190 212 0 q 0 449 0 292 l 0 614 l 908 614 l 908 848 l 0 848 l 0 973 z "},"3":{"ha":1356,"x_min":0,"x_max":1237,"o":"m 0 972 l 1032 972 l 1032 614 l 1237 614 l 1237 414 q 1008 45 1237 178 q 833 0 926 0 l 0 0 l 0 125 l 833 125 q 1093 314 994 125 q 1112 419 1112 376 l 1112 489 l 264 489 l 264 614 l 908 614 l 908 848 l 0 848 l 0 972 z "},"4":{"ha":1153,"x_min":0,"x_max":1027,"o":"m 0 973 l 124 973 l 124 610 l 903 610 l 903 973 l 1027 973 l 1027 0 l 903 0 l 903 486 l 0 486 l 0 973 z "},"5":{"ha":1153,"x_min":0,"x_max":1033,"o":"m 0 973 l 1033 973 l 1033 849 l 124 849 l 124 610 l 1027 610 l 1027 412 q 779 35 1027 169 q 616 0 694 0 l 5 0 l 5 124 l 610 124 q 894 342 806 124 q 903 417 903 389 l 903 486 l 0 486 l 0 973 z "},"6":{"ha":1356,"x_min":0,"x_max":1236,"o":"m 427 973 l 1236 973 l 1236 849 l 437 849 q 134 621 214 849 l 134 610 l 1236 610 l 1236 323 q 954 0 1236 50 l 5 0 l 5 531 l 0 561 q 184 899 0 753 q 427 973 290 973 m 129 486 l 129 124 l 928 124 q 1107 278 1067 124 q 1112 332 1112 296 l 1112 486 l 129 486 z "},"7":{"ha":1085,"x_min":0,"x_max":968,"o":"m 0 973 l 968 973 l 968 0 l 844 0 l 844 486 l 353 486 l 353 610 l 844 610 l 844 849 l 0 849 l 0 973 z "},"8":{"ha":1356,"x_min":0,"x_max":1230,"o":"m 478 976 l 762 976 q 1016 806 951 976 q 1025 732 1025 760 q 991 602 1025 667 q 1175 483 1076 602 q 1230 319 1230 401 l 1230 289 q 1095 50 1230 148 q 916 0 1015 0 l 323 0 q 15 204 96 0 q 0 309 0 256 q 214 597 0 513 q 239 608 239 597 q 204 732 204 668 q 383 966 204 899 q 478 976 423 976 m 328 732 q 463 612 328 626 l 766 612 q 901 712 869 612 l 901 742 q 757 851 880 851 l 488 851 q 338 772 365 851 q 328 732 328 741 m 125 298 q 254 134 125 183 q 323 125 292 125 l 896 125 q 1095 239 1046 125 q 1105 298 1105 273 q 970 478 1105 438 q 916 488 951 488 l 323 488 q 125 323 160 488 l 125 298 z "},"9":{"ha":1356,"x_min":0,"x_max":1236,"o":"m 462 973 l 1236 973 q 1232 665 1232 767 l 1232 412 q 948 20 1232 147 q 819 0 873 0 l 5 0 l 5 124 l 814 124 q 1097 342 1012 124 q 1107 417 1107 389 l 1107 486 l 0 486 l 0 526 q 298 954 0 842 q 462 973 364 973 m 134 610 l 1107 610 l 1107 849 l 477 849 q 179 715 260 849 q 134 610 142 664 z "}," ":{"ha":543,"x_min":0,"x_max":0,"o":""},"!":{"ha":237,"x_min":0,"x_max":124,"o":"m 0 973 l 124 973 l 124 258 l 0 258 l 0 973 m 0 124 l 124 124 l 124 0 l 0 0 l 0 124 z "},"\"":{"ha":441,"x_min":0,"x_max":374,"o":"m 0 1097 l 124 1097 l 124 972 l 0 972 l 0 1097 m 250 1097 l 374 1097 l 374 972 l 250 972 l 250 1097 z "},"#":{"ha":916,"x_min":0,"x_max":816,"o":"m 338 841 l 482 841 l 482 836 q 400 652 462 796 l 564 652 q 652 841 574 652 l 795 841 q 713 652 723 683 l 816 652 l 816 524 l 652 524 l 616 431 l 759 431 l 759 302 l 554 302 l 472 113 l 328 113 q 410 302 410 288 l 241 302 q 154 113 170 123 l 20 113 q 102 302 20 124 l 0 302 l 0 431 l 154 431 q 200 524 163 431 l 56 524 l 56 652 l 252 652 q 338 841 275 675 m 338 524 q 302 431 338 515 l 472 431 q 513 524 472 439 l 338 524 z "},"$":{"ha":1356,"x_min":0,"x_max":1228,"o":"m 429 1168 l 553 1168 l 553 971 l 676 971 l 676 1168 l 799 1168 l 799 971 l 1228 971 l 1228 848 l 799 848 l 799 611 l 1223 611 l 1223 408 q 957 28 1223 163 q 809 4 868 4 l 799 4 l 799 -193 l 676 -193 l 676 4 l 553 4 l 553 -193 l 429 -193 l 429 4 l 5 4 l 5 127 l 429 127 l 429 488 l 0 488 l 0 542 q 306 956 0 844 q 425 971 368 971 l 429 971 l 429 1168 m 133 611 l 429 611 l 429 848 l 425 848 q 133 621 214 848 l 133 611 m 553 848 l 553 611 l 676 611 l 676 848 l 553 848 m 553 488 l 553 127 l 676 127 l 676 488 l 553 488 m 799 488 l 799 127 l 804 127 q 1080 320 992 127 q 1100 418 1100 369 l 1100 488 l 799 488 z "},"%":{"ha":1322,"x_min":0,"x_max":1218,"o":"m 264 972 l 357 972 q 514 927 453 972 q 562 882 528 921 q 620 724 620 811 q 537 540 620 618 q 378 477 463 477 l 243 477 q 69 553 147 477 q 0 724 0 629 q 75 902 0 825 q 165 958 118 942 q 264 972 204 972 m 805 972 l 930 972 q 794 714 930 969 q 453 67 787 699 q 418 0 418 2 l 292 0 l 292 1 q 699 772 682 738 q 805 972 803 968 m 102 731 l 102 720 q 160 607 102 655 q 245 578 201 578 l 374 578 q 496 646 446 578 q 519 724 519 687 q 460 842 519 792 q 357 871 422 871 l 264 871 q 160 842 197 871 q 106 763 123 814 q 102 731 102 743 m 842 496 l 974 496 q 1154 414 1076 496 q 1218 248 1218 340 q 1128 56 1218 138 q 1048 14 1082 22 q 960 0 1015 0 l 859 0 q 666 79 738 0 q 598 248 598 153 q 687 438 598 359 q 842 496 759 496 m 700 253 l 700 241 q 746 141 700 190 q 857 101 789 101 l 960 101 q 1105 192 1063 101 q 1117 248 1117 223 q 1076 349 1117 304 q 972 395 1029 395 l 844 395 q 745 354 790 395 q 700 253 700 308 z "},"&":{"ha":1051,"x_min":0,"x_max":958,"o":"m 0 973 l 148 973 q 221 873 195 911 q 454 973 317 973 l 611 973 l 611 781 l 491 781 l 491 853 l 476 853 q 306 784 387 853 l 295 772 l 295 772 q 682 235 682 235 q 711 309 684 235 l 797 530 l 958 530 l 956 409 l 875 409 q 854 354 872 405 q 766 121 853 353 l 956 121 l 956 0 l 389 0 q 165 81 274 0 q 26 374 26 201 q 130 585 26 497 q 242 638 186 627 l 0 973 m 153 388 l 153 377 q 221 206 153 286 q 414 121 304 121 l 616 121 l 616 122 q 307 550 321 529 q 232 526 277 550 q 170 456 185 493 q 153 388 153 423 z "},"'":{"ha":235,"x_min":68,"x_max":178,"o":"m 134 751 l 113 751 l 71 995 q 68 1017 68 1010 q 82 1056 68 1042 q 123 1069 96 1069 q 164 1056 149 1069 q 178 1018 178 1043 q 176 995 178 1013 l 134 751 z "},"(":{"ha":339,"x_min":0,"x_max":237,"o":"m 229 1084 l 237 1084 l 237 975 q 110 847 110 958 l 110 129 q 207 5 110 39 l 237 1 l 237 -109 q 4 67 71 -109 l 0 111 l 0 860 q 184 1080 0 1021 q 229 1084 208 1084 z "},")":{"ha":339,"x_min":0,"x_max":237,"o":"m 9 1084 q 53 1080 30 1084 q 237 860 237 1021 l 237 111 l 233 67 q 0 -109 166 -109 l 0 1 l 31 5 q 127 129 127 39 l 127 847 q 0 975 127 958 l 0 1084 l 9 1084 z "},"*":{"ha":694,"x_min":138,"x_max":578,"o":"m 262 1069 q 355 942 278 1056 l 451 1069 q 513 1022 513 1027 l 435 914 l 578 914 l 578 837 l 432 837 l 513 725 q 451 679 511 721 q 355 806 357 806 q 265 679 355 802 q 203 725 214 711 l 203 728 l 281 837 l 138 837 l 138 914 l 277 914 l 277 917 q 203 1028 203 1015 q 262 1069 216 1033 z "},"+":{"ha":780,"x_min":0,"x_max":650,"o":"m 267 803 l 382 803 l 382 536 l 650 536 l 650 420 l 382 420 l 382 153 l 267 153 l 267 420 l 0 420 l 0 536 l 267 536 l 267 803 z "},",":{"ha":373,"x_min":0,"x_max":265,"o":"m 88 0 l 265 0 l 265 -15 q 66 -258 265 -191 q 7 -265 38 -265 l 0 -265 l 0 -88 q 88 0 88 -88 z "},"-":{"ha":780,"x_min":0,"x_max":648,"o":"m 0 536 l 648 536 l 648 420 l 0 420 l 0 536 z "},".":{"ha":271,"x_min":-3,"x_max":168,"o":"m -3 172 l 168 172 l 168 2 l -3 2 l -3 172 z "},"/":{"ha":848,"x_min":0,"x_max":693,"o":"m 560 1076 l 693 1076 q 127 -164 127 -154 l 0 -164 l 0 -158 q 560 1076 521 979 z "},":":{"ha":271,"x_min":0,"x_max":170,"o":"m 0 726 l 170 726 l 170 555 l 0 555 l 0 726 m 0 382 l 170 382 l 170 212 l 0 212 l 0 382 z "},";":{"ha":339,"x_min":0,"x_max":265,"o":"m 88 382 l 265 382 l 265 367 q 66 124 265 191 q 7 117 38 117 l 0 117 l 0 294 q 88 382 88 294 m 87 737 l 258 737 l 258 567 l 87 567 l 87 737 z "},"<":{"ha":746,"x_min":0,"x_max":619,"o":"m 347 728 l 613 728 l 613 722 q 272 488 599 722 q 619 248 357 415 l 619 241 l 354 241 q 0 481 10 481 q 347 728 5 494 z "},"=":{"ha":780,"x_min":0,"x_max":648,"o":"m 0 652 l 648 652 l 648 537 l 0 537 l 0 652 m 0 420 l 648 420 l 648 304 l 0 304 l 0 420 z "},">":{"ha":746,"x_min":0,"x_max":619,"o":"m 272 728 q 619 481 614 494 q 265 241 608 481 l 0 241 l 0 248 q 347 488 262 415 q 6 722 20 722 l 6 728 l 272 728 z "},"?":{"ha":1153,"x_min":0,"x_max":1022,"o":"m 326 968 l 701 968 q 1002 775 921 968 q 1022 662 1022 725 q 825 380 1022 465 q 726 361 775 361 l 474 361 l 474 237 l 351 237 l 351 484 l 716 484 q 894 627 850 484 q 899 671 899 654 q 755 840 899 791 q 676 844 705 844 l 336 844 q 134 716 169 844 q 123 662 123 690 l 0 662 l 0 667 q 212 953 0 878 q 326 968 262 968 m 351 123 l 474 123 l 474 0 l 351 0 l 351 123 z "},"@":{"ha":1662,"x_min":0,"x_max":1541,"o":"m 545 1088 l 966 1088 q 1295 994 1158 1088 q 1514 702 1451 888 q 1541 532 1541 621 l 1541 207 q 1377 -79 1541 26 q 1214 -122 1299 -122 l 1187 -122 q 954 110 1181 -116 l 587 110 q 328 236 433 110 q 260 437 260 326 l 260 509 q 408 783 260 676 q 593 836 491 836 l 1045 836 q 1256 703 1187 836 q 1276 617 1276 658 l 1276 268 l 1154 268 l 1154 600 q 1080 708 1154 682 q 1051 712 1069 712 l 585 712 q 401 596 469 712 q 382 516 382 550 l 382 429 q 462 275 382 343 q 579 233 520 233 l 1006 233 l 1237 3 l 1239 3 q 1343 47 1279 3 q 1417 199 1417 117 l 1417 541 q 1289 841 1417 704 q 985 964 1155 964 l 529 964 q 199 798 332 964 q 123 574 123 683 l 123 394 q 216 148 123 267 q 340 48 290 68 q 396 23 349 40 q 517 1 458 1 l 755 1 l 755 -122 l 528 -122 q 139 48 302 -122 q 0 399 0 207 l 0 567 q 127 904 0 748 q 545 1088 290 1088 z "},"A":{"ha":1356,"x_min":0,"x_max":1234,"o":"m 396 971 l 1234 971 l 1234 847 l 406 847 q 134 639 228 847 q 129 614 134 623 l 1224 614 q 1234 604 1234 613 l 1234 0 l 1110 0 l 1110 490 l 124 490 l 124 0 l 0 0 l 0 555 q 273 946 0 817 q 396 971 348 971 z "},"B":{"ha":1356,"x_min":0,"x_max":1237,"o":"m 203 974 l 651 974 l 651 616 l 785 616 q 1212 328 1099 616 q 1237 159 1237 257 l 1237 10 q 1227 0 1237 0 l 203 0 l 203 492 l 0 492 l 0 616 l 203 616 l 203 974 m 328 850 l 328 616 l 526 616 l 526 850 l 328 850 m 328 492 l 328 124 l 1113 124 l 1113 139 q 939 462 1113 386 q 775 492 886 492 l 328 492 z "},"C":{"ha":1356,"x_min":0,"x_max":1236,"o":"m 397 973 l 1236 973 l 1236 859 q 1236 849 1236 849 l 407 849 q 154 680 248 849 q 124 541 124 621 l 124 442 q 368 129 124 198 q 447 124 418 124 l 1236 124 l 1236 0 l 437 0 q 25 283 146 0 q 0 422 0 354 l 0 546 q 273 948 0 821 q 397 973 349 973 z "},"D":{"ha":1356,"x_min":0,"x_max":1234,"o":"m 0 972 l 828 972 q 1209 704 1076 972 q 1234 580 1234 624 l 1234 406 q 962 25 1234 159 q 788 0 876 0 l 10 0 l 0 5 l 0 972 m 129 848 l 129 124 l 788 124 q 1105 352 1031 124 q 1110 406 1110 386 l 1110 575 q 917 833 1110 736 q 828 848 864 848 l 129 848 z "},"E":{"ha":1356,"x_min":-2,"x_max":1238,"o":"m 1231 972 l 1231 848 l -2 848 l -2 972 l 1231 972 m 0 615 l 1238 615 l 1238 492 l 130 492 l 130 397 q 224 203 130 298 q 463 124 304 124 l 1238 124 l 1238 0 l 452 0 q 15 317 123 0 q 0 477 0 386 l 0 615 z "},"F":{"ha":1356,"x_min":0,"x_max":1233,"o":"m 0 972 l 1233 972 l 1233 848 l 0 848 l 0 972 m 10 615 l 1232 615 q 1233 605 1233 614 l 1233 491 l 124 491 l 124 0 l 10 0 q 0 10 0 0 l 0 605 q 10 615 1 615 z "},"G":{"ha":1356,"x_min":0,"x_max":1236,"o":"m 392 972 l 1236 972 l 1236 848 l 412 848 q 134 625 218 848 q 124 531 124 586 l 124 124 l 769 124 q 1086 313 1004 124 q 1107 412 1107 370 l 1107 491 l 645 491 l 645 615 l 1230 615 l 1230 392 q 1027 60 1230 201 q 789 0 928 0 l 0 0 l 0 551 q 229 928 0 797 q 392 972 319 972 z "},"H":{"ha":1356,"x_min":0,"x_max":1232,"o":"m 0 973 l 124 973 l 124 631 l 1107 631 l 1107 973 l 1232 973 l 1232 0 l 1107 0 l 1107 501 l 124 501 l 124 0 l 0 0 l 0 973 z "},"I":{"ha":814,"x_min":0,"x_max":690,"o":"m 0 972 l 690 972 l 690 848 l 407 848 l 407 124 l 690 124 l 690 0 l 0 0 l 0 124 l 283 124 l 283 848 l 10 848 q 0 859 0 848 l 0 972 z "},"J":{"ha":1085,"x_min":0,"x_max":968,"o":"m 347 973 l 968 973 l 968 412 q 705 30 968 166 q 522 0 619 0 l 10 0 q 0 10 0 0 l 0 124 l 522 124 q 829 328 749 124 q 844 412 844 368 l 844 849 l 357 849 q 347 859 347 849 l 347 973 z "},"K":{"ha":1356,"x_min":0,"x_max":1235,"o":"m 203 972 l 332 972 l 332 615 l 585 615 q 863 833 774 615 q 873 937 873 895 l 873 972 l 997 972 l 997 918 q 873 610 997 742 q 1121 481 981 610 q 1235 189 1235 359 l 1235 0 l 1111 0 l 1111 178 q 883 481 1111 401 q 769 491 829 491 l 332 491 l 332 0 l 203 0 l 203 491 l 0 491 l 0 615 l 203 615 l 203 972 z "},"L":{"ha":1356,"x_min":0,"x_max":1236,"o":"m 0 973 l 124 973 l 124 124 l 789 124 q 1097 328 1017 124 q 1112 427 1112 371 l 1236 427 l 1236 417 q 973 30 1236 166 q 789 0 882 0 l 0 0 l 0 973 z "},"M":{"ha":1356,"x_min":0,"x_max":1232,"o":"m 0 973 l 313 973 q 507 243 507 258 l 720 243 l 913 973 l 1232 973 l 1232 0 l 1107 0 l 1107 849 l 1008 849 q 814 119 1008 836 l 412 119 l 218 849 l 124 849 l 124 0 l 0 0 l 0 973 z "},"N":{"ha":1356,"x_min":0,"x_max":1228,"o":"m 0 970 l 351 970 q 570 659 391 926 l 941 124 l 1104 124 l 1104 970 l 1228 970 l 1228 0 l 876 0 q 292 846 846 35 l 124 846 l 124 0 l 0 0 l 0 970 z "},"O":{"ha":1356,"x_min":0,"x_max":1232,"o":"m 0 973 l 824 973 q 1206 705 1073 973 q 1232 581 1232 625 l 1232 0 l 437 0 q 25 283 146 0 q 0 422 0 354 l 0 973 m 124 849 l 124 432 q 368 129 124 202 q 447 124 418 124 l 1107 124 l 1107 566 q 894 839 1107 754 q 824 849 857 849 l 124 849 z "},"P":{"ha":1356,"x_min":0,"x_max":1238,"o":"m 0 974 l 845 974 q 1158 805 1015 974 q 1238 587 1238 687 l 1238 492 l 130 492 l 130 0 l 5 0 l 5 616 l 1108 616 q 969 810 1073 745 q 825 850 890 850 l 0 850 l 0 974 z "},"Q":{"ha":1356,"x_min":0,"x_max":1236,"o":"m 412 973 l 1236 973 l 1236 447 q 1152 169 1236 288 q 1232 90 1158 169 q 1147 5 1232 83 q 1067 84 1141 5 q 800 0 945 0 l 10 0 q 0 10 0 0 l 0 496 q 273 948 0 832 q 412 973 349 973 m 129 571 l 129 124 l 789 124 q 973 169 888 124 l 973 174 l 844 308 q 928 392 844 314 l 1063 263 l 1067 263 q 1112 447 1112 348 l 1112 849 l 412 849 q 139 635 223 849 q 129 571 129 613 z "},"R":{"ha":1356,"x_min":0,"x_max":1240,"o":"m 0 972 l 846 972 q 1072 885 966 972 q 1135 821 1112 850 q 1191 739 1184 759 q 1236 553 1236 653 l 1236 491 l 873 491 q 1148 123 901 453 l 1240 0 l 1080 0 q 987 124 1080 1 q 865 283 924 207 q 743 439 793 377 q 699 491 711 479 l 124 491 l 124 0 l 8 0 q 0 9 1 0 l 0 605 q 0 616 0 616 l 1105 616 q 989 791 1068 738 q 827 848 907 848 l 0 848 l 0 972 z "},"S":{"ha":1356,"x_min":0,"x_max":1236,"o":"m 412 972 l 1236 972 l 1236 848 l 412 848 q 134 630 218 848 q 129 615 134 625 l 1231 615 l 1231 412 q 978 35 1231 169 q 799 0 892 0 l 0 0 l 0 124 l 789 124 q 1102 357 1029 124 q 1107 412 1107 391 l 1107 491 l 0 491 l 0 556 q 273 948 0 818 q 412 972 349 972 z "},"T":{"ha":1356,"x_min":0,"x_max":1232,"o":"m 0 973 l 1232 973 l 1232 849 l 680 849 l 680 10 q 670 0 680 0 l 556 0 l 556 849 l 0 849 l 0 973 z "},"U":{"ha":1356,"x_min":0,"x_max":1232,"o":"m 0 973 l 124 973 l 124 462 q 318 144 124 222 q 447 124 376 124 l 800 124 q 1093 328 1013 124 q 1107 412 1107 368 l 1107 973 l 1232 973 l 1232 412 q 968 30 1232 160 q 804 0 884 0 l 432 0 q 20 293 144 0 q 0 452 0 372 l 0 973 z "},"V":{"ha":983,"x_min":0,"x_max":873,"o":"m 0 973 l 119 973 q 203 635 131 973 q 328 124 243 501 l 546 124 q 749 973 566 225 l 873 973 l 873 968 q 640 0 859 895 l 238 0 q 194 174 227 0 q 0 973 119 453 z "},"W":{"ha":1356,"x_min":0,"x_max":1232,"o":"m 0 973 l 124 973 q 328 124 328 140 l 368 124 l 442 968 l 452 973 l 785 973 l 864 124 l 899 124 l 1102 973 l 1232 973 q 993 0 1013 69 l 760 0 q 725 313 745 0 q 670 849 720 317 l 556 849 l 556 844 q 477 0 496 149 l 238 0 q 194 169 229 0 q 0 973 10 907 z "},"X":{"ha":1356,"x_min":0,"x_max":1236,"o":"m 0 973 l 268 973 q 621 774 474 973 q 968 973 757 973 l 1236 973 l 1236 849 l 968 849 q 700 661 792 849 q 680 546 680 606 l 680 432 q 888 139 680 220 q 993 124 935 124 l 1236 124 l 1236 0 l 988 0 q 621 203 750 0 l 616 203 q 248 0 486 0 l 0 0 l 0 124 l 243 124 q 551 362 479 124 q 556 432 556 405 l 556 556 q 387 819 556 727 q 268 849 332 849 l 0 849 l 0 973 z "},"Y":{"ha":1356,"x_min":0,"x_max":1230,"o":"m 0 972 l 124 972 l 124 788 q 372 486 124 556 q 446 481 415 481 l 783 481 q 1086 674 1004 481 q 1105 773 1105 724 l 1105 972 l 1230 972 l 1230 764 q 966 387 1230 517 q 788 357 889 357 l 679 357 l 679 0 l 555 0 l 555 357 l 441 357 q 20 644 136 357 q 0 778 0 711 l 0 972 z "},"Z":{"ha":762,"x_min":0,"x_max":1232,"o":"m 0 973 l 1232 973 l 1232 581 q 869 486 1232 569 q 124 298 856 477 l 124 124 l 1232 124 l 1232 0 l 0 0 l 0 397 l 1107 670 l 1107 849 l 0 849 l 0 973 z "},"[":{"ha":339,"x_min":0,"x_max":237,"o":"m 237 1084 l 237 977 l 107 977 l 107 3 l 237 3 l 237 -103 l 0 -103 l 0 1084 l 237 1084 z "},"\\":{"ha":475,"x_min":0,"x_max":386,"o":"m 245 0 q 0 968 238 2 l 0 973 l 140 973 q 386 5 169 939 l 386 0 l 245 0 z "},"]":{"ha":339,"x_min":0,"x_max":237,"o":"m 0 1084 l 237 1084 l 237 -103 l 0 -103 l 0 3 l 130 3 l 130 977 l 0 977 l 0 1084 z "},"^":{"ha":576,"x_min":3,"x_max":489,"o":"m 3 640 q 249 973 237 968 q 489 633 250 963 l 489 379 l 483 379 q 243 713 315 631 q 9 385 9 399 l 3 385 l 3 640 z "},"_":{"ha":780,"x_min":0,"x_max":648,"o":"m 0 0 l 648 0 l 648 -115 l 0 -115 l 0 0 z "},"`":{"ha":694,"x_min":144,"x_max":456,"o":"m 456 732 l 410 732 l 186 869 q 154 896 165 882 q 144 924 144 909 q 158 959 144 945 q 194 972 172 972 q 221 964 208 972 q 259 932 235 956 l 456 732 z "},"a":{"ha":1356,"x_min":0,"x_max":1235,"o":"m 0 976 l 831 976 q 1195 736 1063 976 q 1235 572 1235 661 l 1235 0 l 448 0 q 25 294 147 0 q 0 438 0 355 l 0 617 l 1105 617 q 966 812 1070 744 q 821 851 885 851 l 0 851 l 0 976 m 125 493 l 125 458 q 393 130 125 195 q 478 125 431 125 l 1110 125 l 1110 493 l 125 493 z "},"b":{"ha":1356,"x_min":0,"x_max":1232,"o":"m 0 973 l 124 973 l 124 616 l 785 616 q 1221 293 1118 616 q 1232 194 1232 243 l 1232 0 l 293 0 q 10 199 84 0 q 0 268 0 236 l 0 973 m 124 492 l 124 283 q 268 124 124 158 l 1107 124 l 1107 184 q 854 486 1107 418 q 779 492 810 492 l 124 492 z "},"c":{"ha":1356,"x_min":0,"x_max":1236,"o":"m 392 973 l 1236 973 l 1236 849 l 412 849 q 149 665 241 849 q 124 536 124 610 l 124 447 q 342 139 124 213 q 452 124 380 124 l 1236 124 l 1236 0 l 432 0 q 15 308 130 0 q 0 427 0 371 l 0 546 q 229 928 0 798 q 392 973 319 973 z "},"d":{"ha":1356,"x_min":0,"x_max":1236,"o":"m 1112 973 l 1236 973 l 1236 293 q 1067 25 1236 105 q 943 0 1021 0 l 0 0 l 0 154 q 258 581 0 463 q 447 616 333 616 l 1112 616 l 1112 973 m 124 124 l 933 124 q 1102 238 1065 124 q 1112 303 1112 260 l 1112 492 l 467 492 q 149 303 230 492 q 124 124 124 255 z "},"e":{"ha":1356,"x_min":0,"x_max":1236,"o":"m 0 973 l 844 973 q 1152 809 1010 973 q 1236 566 1236 692 l 1236 492 l 129 492 l 129 432 q 382 129 129 195 q 457 124 426 124 l 1236 124 l 1236 0 l 437 0 q 15 323 123 0 q 5 412 5 372 l 5 616 l 1107 616 q 963 809 1062 758 q 824 849 895 849 l 0 849 l 0 973 z "},"f":{"ha":1356,"x_min":0,"x_max":1236,"o":"m 407 973 l 1236 973 l 1236 849 l 412 849 q 149 670 245 849 q 134 616 134 637 l 1236 616 l 1236 492 l 124 492 l 124 0 l 0 0 l 0 561 q 218 924 0 788 q 407 973 310 973 z "},"g":{"ha":1356,"x_min":0,"x_max":1233,"o":"m 391 970 l 1233 970 l 1233 846 l 411 846 q 149 669 245 846 q 134 614 134 635 l 1104 614 l 1104 733 l 1228 733 l 1228 411 q 975 35 1228 165 q 797 0 892 0 l 0 0 l 0 124 l 777 124 q 1084 317 1003 124 q 1104 416 1104 366 l 1104 490 l 0 490 l 0 564 q 233 931 0 791 q 391 970 329 970 z "},"h":{"ha":1356,"x_min":0,"x_max":1232,"o":"m 0 973 l 124 973 l 124 616 l 785 616 q 1221 293 1118 616 q 1232 194 1232 243 l 1232 0 l 1107 0 l 1107 194 q 909 471 1107 382 q 764 492 859 492 l 124 492 l 124 0 l 0 0 l 0 973 z "},"i":{"ha":475,"x_min":0,"x_max":358,"o":"m 0 970 l 358 970 l 358 851 l 234 851 l 234 119 l 358 119 l 358 0 l 0 0 l 0 119 l 119 119 l 119 851 l 0 851 l 0 970 z "},"j":{"ha":543,"x_min":0,"x_max":427,"o":"m 64 973 l 427 973 l 427 417 q 139 20 427 147 q 0 0 54 0 l 0 124 q 283 318 187 124 q 303 437 303 376 l 303 849 l 64 849 l 64 973 z "},"k":{"ha":1356,"x_min":0,"x_max":1232,"o":"m 199 973 l 323 973 l 323 616 l 680 616 l 680 973 l 804 973 l 804 616 q 1221 303 1102 616 q 1232 208 1232 243 l 1232 0 l 1107 0 l 1107 199 q 879 481 1107 398 q 834 486 852 486 l 323 486 l 323 0 l 199 0 l 199 486 l 0 486 l 0 616 l 199 616 l 199 973 z "},"l":{"ha":1119,"x_min":0,"x_max":963,"o":"m 0 973 l 124 973 l 124 422 q 347 134 124 221 q 452 124 410 124 l 963 124 l 963 0 l 432 0 q 50 223 180 0 q 0 422 0 312 l 0 973 z "},"m":{"ha":1356,"x_min":0,"x_max":1232,"o":"m 0 973 l 839 973 q 1196 730 1053 973 q 1232 566 1232 640 l 1232 0 l 1107 0 l 1107 546 q 873 844 1107 765 q 819 849 840 849 l 680 849 l 680 0 l 551 0 l 551 849 l 124 849 l 124 0 l 0 0 l 0 973 z "},"n":{"ha":1356,"x_min":0,"x_max":1228,"o":"m 0 970 l 822 970 q 1208 688 1080 970 q 1228 559 1228 614 l 1228 0 l 1104 0 l 1104 540 q 901 832 1104 747 q 817 846 855 846 l 124 846 l 124 0 l 0 0 l 0 970 z "},"o":{"ha":1356,"x_min":0,"x_max":1233,"o":"m 406 970 l 827 970 q 1188 738 1053 970 q 1228 585 1228 646 l 1228 559 q 1233 555 1228 555 l 1228 545 l 1228 416 q 951 25 1228 151 q 797 0 874 0 l 431 0 q 15 307 130 0 q 0 426 0 370 l 0 545 q 312 960 0 845 q 406 970 372 970 m 124 534 l 124 446 q 342 138 124 212 q 450 124 379 124 l 777 124 q 1094 351 1023 124 q 1104 435 1104 391 l 1104 564 q 906 832 1104 739 q 817 846 853 846 l 411 846 q 149 663 240 846 q 124 534 124 608 z "},"p":{"ha":1356,"x_min":0,"x_max":1236,"o":"m 0 973 l 844 973 q 1192 749 1048 973 q 1236 571 1236 656 l 1236 492 l 347 492 l 347 616 l 1107 616 q 998 789 1092 696 q 824 849 905 849 l 129 849 l 129 0 l 5 0 l 5 665 q 0 973 5 767 z "},"q":{"ha":1356,"x_min":0,"x_max":1236,"o":"m 407 973 l 1236 973 l 1236 0 l 1112 0 l 1112 849 l 417 849 q 134 625 220 849 l 134 616 l 888 616 l 888 492 l 0 492 l 0 526 q 313 963 0 853 q 407 973 373 973 z "},"r":{"ha":1017,"x_min":0,"x_max":888,"o":"m 0 973 l 124 973 l 124 854 q 407 973 253 973 l 888 973 l 888 849 l 412 849 q 154 680 251 849 q 124 541 124 621 l 124 0 l 0 0 l 0 973 z "},"s":{"ha":1356,"x_min":0,"x_max":1236,"o":"m 412 972 l 1236 972 l 1236 848 l 412 848 q 134 630 218 848 q 129 615 134 625 l 1231 615 l 1231 412 q 978 35 1231 169 q 799 0 892 0 l 0 0 l 0 124 l 789 124 q 1102 357 1029 124 q 1107 412 1107 391 l 1107 491 l 0 491 l 0 556 q 273 948 0 818 q 412 972 349 972 z "},"t":{"ha":1085,"x_min":0,"x_max":963,"o":"m 203 973 l 328 973 l 328 616 l 586 616 l 586 492 l 328 492 l 328 417 q 551 134 328 218 q 650 124 601 124 l 963 124 l 963 0 l 631 0 q 214 318 325 0 q 203 407 203 368 l 203 492 l 0 492 l 0 616 l 203 616 l 203 973 z "},"u":{"ha":1356,"x_min":0,"x_max":1232,"o":"m 0 973 l 124 973 l 124 477 q 332 139 124 214 q 442 124 395 124 l 1107 124 l 1107 973 l 1232 973 l 1232 0 l 432 0 q 15 308 132 0 q 0 457 0 379 l 0 973 z "},"v":{"ha":1017,"x_min":0,"x_max":879,"o":"m 0 973 l 124 973 q 208 640 136 973 q 332 124 332 151 l 541 124 q 625 457 553 124 q 749 973 749 947 l 879 973 l 879 968 q 646 0 879 951 l 233 0 q 0 973 229 42 z "},"w":{"ha":1356,"x_min":0,"x_max":1236,"o":"m 0 973 l 124 973 q 203 661 136 973 q 332 124 332 151 l 368 124 q 417 402 380 124 q 452 610 422 402 l 779 610 q 824 368 791 610 q 869 124 834 337 l 903 124 q 1107 973 1097 922 l 1236 973 l 1236 968 l 1003 0 l 760 0 l 760 5 l 680 486 l 561 486 q 481 0 536 347 l 233 0 q 0 973 223 62 z "},"x":{"ha":1356,"x_min":0,"x_max":1236,"o":"m 0 973 l 30 973 q 516 740 297 973 l 621 601 q 804 824 661 690 q 1206 973 998 973 l 1236 973 l 1236 849 l 1221 849 q 695 481 897 849 q 888 243 795 328 q 1236 124 1056 124 l 1236 0 l 1232 0 q 670 298 887 0 q 616 372 621 372 l 610 372 q 0 0 391 0 l 0 124 q 541 492 332 124 q 432 646 534 492 q 10 849 250 849 l 0 849 l 0 973 z "},"y":{"ha":1356,"x_min":0,"x_max":1228,"o":"m 0 970 l 124 970 q 366 629 124 732 q 500 609 429 609 l 1104 609 l 1104 970 l 1228 970 l 1228 406 q 1000 45 1228 178 q 827 0 919 0 l 0 0 l 0 124 l 817 124 q 1094 342 1008 124 q 1104 426 1104 381 l 1104 485 l 480 485 q 30 792 175 485 q 0 951 0 880 l 0 970 z "},"z":{"ha":1356,"x_min":0,"x_max":1232,"o":"m 0 973 l 1232 973 l 1232 581 q 869 486 1232 569 q 124 298 816 467 l 124 124 l 1232 124 l 1232 0 l 0 0 l 0 397 l 1107 670 l 1107 849 l 0 849 l 0 973 z "},"{":{"ha":407,"x_min":-1,"x_max":319,"o":"m 311 1084 l 319 1084 l 319 975 q 192 847 192 958 l 192 129 q 289 5 192 39 l 319 1 l 319 -109 q 86 67 153 -109 l 82 111 l 82 860 q 267 1080 82 1021 q 311 1084 290 1084 m -1 551 l 123 551 l 123 427 l -1 427 l -1 551 z "},"|":{"ha":237,"x_min":-1,"x_max":123,"o":"m -1 1169 l 123 1169 l 123 -286 l -1 -286 l -1 1169 z "},"}":{"ha":407,"x_min":-3,"x_max":317,"o":"m 6 1084 q 50 1080 27 1084 q 235 860 235 1021 l 235 111 l 231 67 q -3 -109 163 -109 l -3 1 l 28 5 q 125 129 125 39 l 125 847 q -3 975 125 958 l -3 1084 l 6 1084 m 317 551 l 317 427 l 193 427 l 193 551 l 317 551 z "},"~":{"ha":688,"x_min":64,"x_max":626,"o":"m 626 595 l 626 490 q 543 424 583 441 q 465 406 503 406 q 344 439 424 406 q 224 472 264 472 q 152 453 190 472 q 64 377 113 434 l 64 483 q 147 550 107 532 q 224 568 187 568 q 348 534 268 568 q 465 500 427 500 q 538 519 500 500 q 626 595 576 538 z "},"¡":{"ha":203,"x_min":-3,"x_max":121,"o":"m -3 0 l -3 715 l 121 715 l 121 0 l -3 0 m -3 849 l -3 973 l 121 973 l 121 849 l -3 849 z "},"¢":{"ha":772,"x_min":0,"x_max":0,"o":""},"£":{"ha":688,"x_min":52,"x_max":635,"o":"m 521 910 q 496 922 521 910 q 399 935 472 935 q 271 869 330 935 q 212 703 212 803 q 248 497 212 591 l 492 497 l 492 456 l 266 456 q 311 322 311 380 q 201 68 311 213 l 473 68 q 602 157 562 68 l 635 157 l 565 0 l 77 0 l 78 34 q 205 317 205 195 q 161 456 205 370 l 52 456 l 52 497 l 143 497 q 104 669 104 594 q 188 904 104 822 q 395 986 271 986 q 534 977 469 986 q 599 954 599 967 l 599 844 l 573 844 q 521 910 570 886 z "},"¤":{"ha":688,"x_min":83,"x_max":604,"o":"m 237 380 q 304 341 265 353 q 344 336 324 336 q 383 341 363 336 q 450 380 422 353 q 489 447 477 408 q 495 486 495 467 q 489 526 495 506 q 450 593 477 565 q 382 631 422 620 q 343 637 363 637 q 304 631 323 637 q 237 593 264 619 q 199 526 211 566 q 193 486 193 506 q 199 448 193 467 q 237 380 210 408 m 163 612 l 83 692 l 137 747 l 217 667 q 284 699 247 688 q 345 708 314 708 q 401 700 372 708 q 470 667 439 688 l 550 747 l 604 692 l 525 613 q 557 544 546 582 q 566 486 566 515 q 557 429 566 458 q 525 359 546 391 l 604 280 l 550 225 l 470 305 q 401 273 439 283 q 344 264 373 264 q 286 273 315 264 q 217 305 248 283 l 137 225 l 83 280 l 163 359 q 130 429 141 391 q 122 486 122 458 q 131 545 122 516 q 163 612 142 583 z "},"¥":{"ha":688,"x_min":-15,"x_max":703,"o":"m 509 0 l 180 0 l 180 34 l 236 34 q 297 193 297 34 l 297 382 l 125 382 l 125 423 l 297 423 l 297 463 l 296 464 l 125 464 l 125 505 l 275 505 l 113 822 q 7 939 59 939 l -15 939 l -15 972 l 280 972 l 280 939 l 223 939 q 184 903 184 939 q 209 823 184 874 l 357 515 l 511 823 q 536 907 536 878 q 506 939 536 939 l 448 939 l 448 972 l 703 972 l 703 939 l 681 939 q 566 823 620 939 l 410 505 l 566 505 l 566 464 l 392 464 l 392 423 l 566 423 l 566 382 l 392 382 l 392 193 q 452 34 392 34 l 509 34 l 509 0 z "},"¦":{"ha":688,"x_min":290,"x_max":398,"o":"m 290 252 l 398 252 l 398 -283 l 290 -283 l 290 252 m 290 1070 l 398 1070 l 398 535 l 290 535 l 290 1070 z "},"§":{"ha":688,"x_min":115,"x_max":572,"o":"m 370 218 q 435 254 408 229 q 485 366 485 298 q 484 373 485 370 l 483 373 q 480 391 482 382 q 404 477 465 433 q 318 497 363 497 q 233 467 265 497 q 201 387 201 437 q 370 218 201 304 m 316 -235 q 441 -188 393 -231 q 490 -76 490 -144 q 276 111 490 9 q 157 204 193 155 q 121 324 121 254 q 182 485 121 425 q 297 541 227 529 l 270 553 q 151 646 186 597 q 115 766 115 696 q 176 927 115 867 q 322 985 231 981 q 334 986 328 986 l 336 986 q 446 975 380 986 q 512 947 512 964 l 512 815 l 477 815 q 423 905 474 870 q 322 939 376 937 l 312 939 q 227 909 259 939 q 195 829 195 879 q 390 647 195 740 q 529 550 491 602 q 566 422 566 498 q 498 231 566 307 q 431 188 466 205 q 535 108 504 150 q 572 -19 572 56 q 504 -211 572 -135 q 316 -282 420 -280 l 316 -281 q 307 -282 312 -282 l 305 -282 q 195 -271 260 -282 q 129 -243 129 -260 l 129 -111 l 163 -111 q 218 -201 167 -166 q 316 -235 264 -231 z "},"¨":{"ha":694,"x_min":142,"x_max":536,"o":"m 151 874 l 199 923 q 216 931 208 931 q 235 922 224 931 l 281 872 q 288 855 288 863 q 280 837 288 846 l 233 786 q 216 774 222 774 q 199 783 207 774 l 148 841 q 142 857 142 849 q 151 874 142 865 m 399 874 l 447 923 q 464 931 456 931 q 482 922 471 931 l 529 872 q 536 855 536 863 q 528 838 536 846 l 481 786 q 464 774 469 774 q 447 783 454 774 l 395 842 q 389 857 389 849 q 399 874 389 865 z "},"©":{"ha":1135,"x_min":68,"x_max":1067,"o":"m 587 151 q 408 197 490 151 q 281 323 325 243 q 238 488 238 402 q 282 653 238 573 q 410 778 327 733 q 582 823 492 823 q 633 819 608 823 q 684 805 658 814 q 690 804 688 804 q 708 825 703 804 l 736 825 l 785 690 l 755 690 q 667 774 720 754 q 567 792 618 792 l 557 792 q 444 744 498 787 q 361 624 389 701 q 339 499 339 563 q 340 465 339 482 q 388 313 348 383 q 489 210 427 243 q 602 182 538 183 q 733 220 686 182 q 781 305 781 258 l 817 305 l 817 237 q 751 179 817 206 q 587 151 686 151 m 568 28 q 892 163 758 28 q 1027 488 1027 298 q 892 812 1027 677 q 568 947 758 947 q 243 812 378 947 q 109 488 109 677 q 243 163 109 298 q 568 28 378 28 m 568 -12 q 214 134 361 -12 q 68 488 68 281 q 214 841 68 694 q 568 987 361 987 q 921 841 774 987 q 1067 488 1067 694 q 921 134 1067 281 q 568 -12 774 -12 z "},"ª":{"ha":439,"x_min":0,"x_max":0,"o":""},"«":{"ha":746,"x_min":0,"x_max":643,"o":"m 288 650 l 405 650 q 124 425 131 425 l 124 422 q 401 193 125 418 l 284 193 q 0 418 18 407 q 288 650 220 600 m 526 650 l 643 650 q 378 435 608 618 l 362 418 q 640 193 600 230 l 522 193 q 241 422 245 415 l 526 650 z "},"¬":{"ha":688,"x_min":59,"x_max":629,"o":"m 59 520 l 629 520 l 629 187 l 628 186 l 562 186 l 562 452 l 59 452 l 59 520 z "},"®":{"ha":1135,"x_min":68,"x_max":1067,"o":"m 667 391 l 723 312 q 825 216 791 216 l 848 216 l 848 182 l 613 182 l 613 216 l 644 216 q 664 231 664 216 q 617 309 664 251 l 566 378 q 509 406 538 378 l 509 298 q 534 216 509 216 l 570 216 l 570 182 l 355 182 l 355 216 l 385 216 q 410 298 410 216 l 410 663 q 385 745 410 745 l 355 745 l 355 793 l 597 793 q 717 732 667 792 q 766 584 766 671 q 667 391 766 477 m 509 745 l 509 492 q 536 436 510 455 q 591 416 562 416 q 646 471 619 419 q 673 578 673 522 q 642 697 670 649 q 572 745 614 745 l 509 745 m 568 28 q 892 163 758 28 q 1027 488 1027 298 q 892 812 1027 677 q 568 947 758 947 q 243 812 378 947 q 109 488 109 677 q 243 163 109 298 q 568 28 378 28 m 568 -12 q 214 134 361 -12 q 68 488 68 281 q 214 841 68 694 q 568 987 361 987 q 921 841 774 987 q 1067 488 1067 694 q 921 134 1067 281 q 568 -12 774 -12 z "},"¯":{"ha":694,"x_min":172,"x_max":522,"o":"m 172 810 l 172 895 l 522 895 l 522 810 l 172 810 z "},"°":{"ha":457,"x_min":41,"x_max":418,"o":"m 230 930 q 130 889 172 930 q 88 789 88 848 q 130 689 88 730 q 230 648 171 648 q 330 689 289 648 q 370 789 370 730 q 329 889 370 848 q 230 930 288 930 m 230 978 q 363 923 308 978 q 418 789 418 867 q 362 656 418 712 q 229 601 307 601 q 95 656 149 601 q 41 789 41 711 q 96 923 41 868 q 230 978 151 978 z "},"±":{"ha":613,"x_min":0,"x_max":486,"o":"m 199 652 l 286 652 l 286 452 l 486 452 l 486 366 l 286 366 l 286 166 l 199 166 l 199 366 l 0 366 l 0 452 l 199 452 l 199 652 m 0 87 l 486 87 l 486 0 l 0 0 l 0 87 z "},"²":{"ha":688,"x_min":0,"x_max":0,"o":""},"³":{"ha":688,"x_min":0,"x_max":0,"o":""},"´":{"ha":694,"x_min":214,"x_max":527,"o":"m 412 932 q 449 964 435 956 q 477 972 463 972 q 513 959 499 972 q 527 924 527 945 q 516 896 527 909 q 485 869 506 882 l 261 731 l 214 731 l 412 932 z "},"µ":{"ha":1119,"x_min":0,"x_max":1033,"o":"m 1033 652 q 988 449 1033 543 q 536 165 845 165 l 124 165 l 124 -321 l 0 -321 l 0 652 l 124 652 l 124 290 l 531 290 q 665 310 598 290 q 909 652 909 422 l 1033 652 m 1033 652 l 1033 -62 l 909 -62 l 909 652 l 1033 652 z "},"¶":{"ha":694,"x_min":63,"x_max":630,"o":"m 630 973 l 630 926 l 544 926 l 544 0 l 488 0 l 488 926 l 376 926 l 376 0 l 319 0 l 319 500 q 132 570 201 506 q 63 736 63 634 q 136 908 63 843 q 330 973 209 973 l 630 973 z "},"·":{"ha":345,"x_min":98,"x_max":247,"o":"m 172 432 q 119 454 141 432 q 98 507 98 475 q 119 559 98 537 q 172 581 141 581 q 225 559 203 581 q 247 507 247 537 q 225 454 247 475 q 172 432 203 432 z "},"¸":{"ha":694,"x_min":244,"x_max":521,"o":"m 244 -197 q 347 -232 302 -232 q 411 -217 392 -232 q 431 -172 431 -203 q 397 -129 431 -142 q 328 -118 370 -118 q 305 -119 317 -118 l 338 0 l 380 0 l 355 -71 q 397 -67 377 -68 q 488 -95 456 -67 q 521 -172 521 -122 q 481 -253 521 -223 q 372 -283 441 -283 q 244 -262 298 -283 l 244 -197 z "},"¹":{"ha":688,"x_min":0,"x_max":0,"o":""},"º":{"ha":1032,"x_min":0,"x_max":0,"o":""},"»":{"ha":746,"x_min":0,"x_max":643,"o":"m 356 650 q 643 418 423 600 q 359 193 625 407 l 241 193 q 519 422 518 418 l 519 425 q 238 650 512 425 l 356 650 m 117 650 l 401 422 q 121 193 397 415 l 3 193 q 281 418 43 230 l 264 435 q 0 650 35 618 l 117 650 z "},"¼":{"ha":1158,"x_min":0,"x_max":0,"o":""},"½":{"ha":1607,"x_min":0,"x_max":0,"o":""},"¾":{"ha":1158,"x_min":0,"x_max":0,"o":""},"¿":{"ha":1153,"x_min":0,"x_max":1022,"o":"m 696 0 l 321 0 q 20 193 101 0 q 0 306 0 243 q 197 587 0 503 q 296 608 247 608 l 548 608 l 548 731 l 671 731 l 671 484 l 306 484 q 128 340 172 484 q 123 296 123 314 q 267 128 123 176 q 346 123 317 123 l 686 123 q 889 252 853 123 q 899 306 899 278 l 1022 306 l 1022 301 q 810 15 1022 90 q 696 0 760 0 m 671 844 l 548 844 l 548 968 l 671 968 l 671 844 z "},"À":{"ha":1044,"x_min":0,"x_max":0,"o":""},"Á":{"ha":1044,"x_min":0,"x_max":0,"o":""},"Â":{"ha":1044,"x_min":0,"x_max":0,"o":""},"Ã":{"ha":1044,"x_min":0,"x_max":0,"o":""},"Ä":{"ha":1044,"x_min":0,"x_max":0,"o":""},"Å":{"ha":1044,"x_min":0,"x_max":0,"o":""},"Æ":{"ha":1417,"x_min":0,"x_max":0,"o":""},"Ç":{"ha":949,"x_min":0,"x_max":0,"o":""},"È":{"ha":781,"x_min":0,"x_max":0,"o":""},"É":{"ha":781,"x_min":0,"x_max":0,"o":""},"Ê":{"ha":781,"x_min":0,"x_max":0,"o":""},"Ë":{"ha":781,"x_min":0,"x_max":0,"o":""},"Ì":{"ha":446,"x_min":0,"x_max":0,"o":""},"Í":{"ha":446,"x_min":0,"x_max":0,"o":""},"Î":{"ha":446,"x_min":0,"x_max":0,"o":""},"Ï":{"ha":446,"x_min":0,"x_max":0,"o":""},"Ð":{"ha":1029,"x_min":0,"x_max":0,"o":""},"Ñ":{"ha":1054,"x_min":0,"x_max":0,"o":""},"Ò":{"ha":1095,"x_min":0,"x_max":0,"o":""},"Ó":{"ha":1095,"x_min":0,"x_max":0,"o":""},"Ô":{"ha":1095,"x_min":0,"x_max":0,"o":""},"Õ":{"ha":1095,"x_min":0,"x_max":0,"o":""},"Ö":{"ha":1095,"x_min":0,"x_max":0,"o":""},"×":{"ha":688,"x_min":109,"x_max":578,"o":"m 344 419 l 176 252 l 109 319 l 277 486 l 109 654 l 176 721 l 344 553 l 511 721 l 512 721 l 578 654 l 411 486 l 578 319 l 578 318 l 511 252 l 344 419 z "},"Ø":{"ha":1095,"x_min":0,"x_max":0,"o":""},"Ù":{"ha":1018,"x_min":0,"x_max":0,"o":""},"Ú":{"ha":1018,"x_min":0,"x_max":0,"o":""},"Û":{"ha":1018,"x_min":0,"x_max":0,"o":""},"Ü":{"ha":1018,"x_min":0,"x_max":0,"o":""},"Ý":{"ha":836,"x_min":0,"x_max":0,"o":""},"Þ":{"ha":760,"x_min":0,"x_max":0,"o":""},"ß":{"ha":848,"x_min":0,"x_max":0,"o":""},"à":{"ha":625,"x_min":0,"x_max":0,"o":""},"á":{"ha":625,"x_min":0,"x_max":0,"o":""},"â":{"ha":625,"x_min":0,"x_max":0,"o":""},"ã":{"ha":625,"x_min":0,"x_max":0,"o":""},"ä":{"ha":625,"x_min":0,"x_max":0,"o":""},"å":{"ha":625,"x_min":0,"x_max":0,"o":""},"æ":{"ha":984,"x_min":0,"x_max":0,"o":""},"ç":{"ha":614,"x_min":0,"x_max":0,"o":""},"è":{"ha":616,"x_min":0,"x_max":0,"o":""},"é":{"ha":616,"x_min":0,"x_max":0,"o":""},"ê":{"ha":616,"x_min":0,"x_max":0,"o":""},"ë":{"ha":616,"x_min":0,"x_max":0,"o":""},"ì":{"ha":349,"x_min":0,"x_max":0,"o":""},"í":{"ha":349,"x_min":0,"x_max":0,"o":""},"î":{"ha":349,"x_min":0,"x_max":0,"o":""},"ï":{"ha":349,"x_min":0,"x_max":0,"o":""},"ð":{"ha":772,"x_min":0,"x_max":0,"o":""},"ñ":{"ha":751,"x_min":0,"x_max":0,"o":""},"ò":{"ha":685,"x_min":0,"x_max":0,"o":""},"ó":{"ha":685,"x_min":0,"x_max":0,"o":""},"ô":{"ha":685,"x_min":0,"x_max":0,"o":""},"õ":{"ha":685,"x_min":0,"x_max":0,"o":""},"ö":{"ha":685,"x_min":0,"x_max":0,"o":""},"÷":{"ha":1019,"x_min":1,"x_max":834,"o":"m 1 649 l 834 649 l 834 538 l 1 538 l 1 649 m 172 889 l 342 889 l 342 719 l 172 719 l 172 889 m 172 545 l 342 545 l 342 375 l 172 375 l 172 545 z "},"ø":{"ha":685,"x_min":0,"x_max":0,"o":""},"ù":{"ha":718,"x_min":0,"x_max":0,"o":""},"ú":{"ha":718,"x_min":0,"x_max":0,"o":""},"û":{"ha":718,"x_min":0,"x_max":0,"o":""},"ü":{"ha":718,"x_min":0,"x_max":0,"o":""},"ý":{"ha":589,"x_min":0,"x_max":0,"o":""},"þ":{"ha":685,"x_min":0,"x_max":0,"o":""},"ÿ":{"ha":589,"x_min":0,"x_max":0,"o":""},"ı":{"ha":349,"x_min":13,"x_max":321,"o":"m 222 151 q 290 34 222 34 l 321 34 l 321 0 l 22 0 l 22 34 l 53 34 q 121 151 121 34 l 121 444 q 45 496 121 496 l 13 496 l 13 526 q 190 650 163 573 l 222 650 l 222 151 z "},"̀":{"ha":0,"x_min":-330,"x_max":-17,"o":"m -17 732 l -64 732 l -288 870 q -319 897 -309 884 q -330 926 -330 911 q -316 960 -330 947 q -279 974 -302 974 q -252 966 -266 974 q -214 934 -238 958 l -17 732 z "},"́":{"ha":0,"x_min":-330,"x_max":-17,"o":"m -132 934 q -95 966 -109 958 q -67 974 -81 974 q -31 960 -45 974 q -17 926 -17 947 q -27 897 -17 911 q -59 870 -38 884 l -283 732 l -330 732 l -132 934 z "},"̂":{"ha":0,"x_min":-423,"x_max":-28,"o":"m -423 733 l -266 974 l -186 974 l -28 733 l -68 733 l -226 880 l -384 733 l -423 733 z "},"̃":{"ha":0,"x_min":-415,"x_max":-26,"o":"m -26 918 q -72 828 -39 868 q -161 789 -105 789 q -238 810 -195 789 q -321 831 -282 831 q -378 789 -361 831 l -415 789 q -369 879 -402 840 q -288 918 -336 918 q -206 899 -250 918 q -122 880 -161 880 q -62 918 -81 880 l -26 918 z "},"̄":{"ha":0,"x_min":-357,"x_max":-7,"o":"m -357 810 l -357 895 l -7 895 l -7 810 l -357 810 z "},"̇":{"ha":0,"x_min":-263,"x_max":-117,"o":"m -254 874 l -207 923 q -198 929 -203 927 q -189 931 -193 931 q -180 929 -184 931 q -172 923 -176 927 l -123 871 q -119 865 -120 869 q -117 855 -117 861 q -119 845 -118 849 q -125 837 -121 841 l -173 785 q -184 776 -181 778 q -189 774 -186 774 q -200 776 -195 774 q -207 782 -204 778 l -258 841 q -262 847 -260 844 q -263 857 -263 851 q -261 865 -263 861 q -254 874 -259 869 z "},"̈":{"ha":0,"x_min":-409,"x_max":-15,"o":"m -399 874 l -351 923 q -334 931 -342 931 q -316 922 -327 931 l -269 872 q -262 855 -262 863 q -271 837 -262 846 l -317 786 q -334 774 -329 774 q -351 783 -344 774 l -403 841 q -409 857 -409 849 q -399 874 -409 865 m -152 874 l -104 923 q -87 931 -95 931 q -68 922 -79 931 l -22 872 q -15 855 -15 863 q -23 838 -15 846 l -70 786 q -87 774 -81 774 q -104 783 -96 774 l -155 842 q -161 857 -161 849 q -152 874 -161 865 z "},"̊":{"ha":0,"x_min":-289,"x_max":-48,"o":"m -237 853 q -218 805 -237 825 q -170 785 -198 785 q -121 805 -141 785 q -102 853 -102 825 q -122 900 -102 880 q -170 920 -142 920 q -217 900 -197 920 q -237 853 -237 880 m -289 853 q -254 939 -289 904 q -170 973 -220 973 q -83 938 -118 973 q -48 853 -48 903 q -83 767 -48 802 q -170 732 -118 732 q -254 767 -220 732 q -289 853 -289 802 z "},"̌":{"ha":0,"x_min":-423,"x_max":-28,"o":"m -423 974 l -384 974 l -226 829 l -68 974 l -28 974 l -186 732 l -266 732 l -423 974 z "},"̧":{"ha":0,"x_min":-319,"x_max":-43,"o":"m -319 -197 q -216 -232 -262 -232 q -152 -217 -172 -232 q -133 -172 -133 -203 q -166 -129 -133 -142 q -235 -118 -193 -118 q -258 -119 -246 -118 l -226 0 l -183 0 l -208 -71 q -166 -67 -186 -68 q -75 -95 -108 -67 q -43 -172 -43 -122 q -82 -253 -43 -223 q -191 -283 -122 -283 q -319 -262 -265 -283 l -319 -197 z "},"–":{"ha":956,"x_min":0,"x_max":781,"o":"m 0 648 l 781 648 l 781 509 l 0 509 l 0 648 z "},"—":{"ha":1389,"x_min":0,"x_max":1223,"o":"m 0 536 l 1223 536 l 1223 420 l 0 420 l 0 536 z "},"‘":{"ha":378,"x_min":0,"x_max":265,"o":"m 88 973 l 265 973 l 265 958 q 66 715 265 783 q 7 708 38 708 l 0 708 l 0 885 q 88 973 88 885 z "},"’":{"ha":378,"x_min":0,"x_max":265,"o":"m 88 708 q 0 796 88 796 l 0 973 l 7 973 q 66 966 38 973 q 265 723 265 899 l 265 708 l 88 708 z "},"‚":{"ha":378,"x_min":0,"x_max":265,"o":"m 88 3 l 265 3 l 265 -12 q 66 -255 265 -188 q 7 -262 38 -262 l 0 -262 l 0 -85 q 88 3 88 -85 z "},"“":{"ha":746,"x_min":0,"x_max":615,"o":"m 88 973 l 265 973 l 265 958 q 66 715 265 783 q 7 708 38 708 l 0 708 l 0 885 q 88 973 88 885 m 438 973 l 615 973 l 615 958 q 416 715 615 783 q 357 708 388 708 l 350 708 l 350 885 q 438 973 438 885 z "},"”":{"ha":746,"x_min":0,"x_max":615,"o":"m 88 708 q 0 796 88 796 l 0 973 l 7 973 q 66 966 38 973 q 265 723 265 899 l 265 708 l 88 708 m 438 708 q 350 796 438 796 l 350 973 l 357 973 q 416 966 388 973 q 615 723 615 899 l 615 708 l 438 708 z "},"„":{"ha":746,"x_min":0,"x_max":615,"o":"m 88 0 l 265 0 l 265 -15 q 66 -258 265 -191 q 7 -265 38 -265 l 0 -265 l 0 -88 q 88 0 88 -88 m 438 0 l 615 0 l 615 -15 q 416 -258 615 -191 q 357 -265 388 -265 l 350 -265 l 350 -88 q 438 0 438 -88 z "},"†":{"ha":688,"x_min":48,"x_max":640,"o":"m 330 693 q 293 814 324 759 q 254 901 254 882 q 279 955 254 935 q 344 975 303 975 q 408 956 382 975 q 433 907 433 937 q 396 814 433 886 q 359 693 365 757 q 479 730 424 699 q 566 768 547 768 q 620 744 600 768 q 640 679 640 720 q 622 615 640 640 q 572 589 603 589 q 480 627 551 589 q 359 665 422 658 q 433 477 364 546 q 357 -183 361 165 l 332 -183 q 254 477 328 165 q 330 665 323 546 q 209 628 264 659 q 121 589 140 589 q 68 614 88 589 q 48 679 48 638 q 67 743 48 718 q 115 768 85 768 q 208 730 137 768 q 330 693 266 699 z "},"‡":{"ha":688,"x_min":47,"x_max":640,"o":"m 358 126 q 479 165 422 134 q 572 202 550 202 q 621 177 602 202 q 640 113 640 151 q 619 47 640 72 q 566 23 599 23 q 478 62 547 23 q 358 98 423 93 q 395 -23 364 35 q 433 -116 433 -94 q 407 -164 433 -146 q 343 -183 382 -183 q 278 -163 302 -183 q 254 -110 254 -143 q 292 -22 254 -91 q 329 98 323 33 q 208 61 265 92 q 115 23 136 23 q 66 48 85 23 q 47 113 47 74 q 67 178 47 153 q 121 202 87 202 q 208 163 140 202 q 329 126 264 133 q 254 396 323 279 q 329 665 323 512 q 208 628 264 659 q 121 589 140 589 q 67 614 87 589 q 47 679 47 638 q 66 743 47 718 q 115 768 85 768 q 208 730 136 768 q 329 693 265 699 q 292 814 323 759 q 254 901 254 882 q 278 955 254 935 q 343 975 302 975 q 407 956 382 975 q 433 907 433 937 q 395 814 433 886 q 358 693 364 757 q 478 730 423 699 q 566 768 547 768 q 619 744 599 768 q 640 679 640 720 q 621 615 640 640 q 572 589 602 589 q 479 627 550 589 q 358 665 422 658 q 433 396 363 512 q 358 126 363 279 z "},"•":{"ha":694,"x_min":146,"x_max":548,"o":"m 146 487 q 205 629 146 570 q 348 687 264 687 q 489 628 431 687 q 548 487 548 570 q 489 345 548 404 q 347 286 429 286 q 205 345 263 286 q 146 487 146 404 z "},"…":{"ha":1389,"x_min":-3,"x_max":1094,"o":"m -3 172 l 168 172 l 168 2 l -3 2 l -3 172 m 460 172 l 631 172 l 631 2 l 460 2 l 460 172 m 924 172 l 1094 172 l 1094 2 l 924 2 l 924 172 z "},"‹":{"ha":428,"x_min":118,"x_max":359,"o":"m 118 325 l 350 530 l 359 530 l 359 505 l 220 325 l 359 144 l 359 119 l 350 119 l 118 325 z "},"›":{"ha":428,"x_min":68,"x_max":310,"o":"m 78 119 l 68 119 l 68 144 l 208 325 l 68 505 l 68 530 l 78 530 l 310 325 l 78 119 z "},"⁄":{"ha":232,"x_min":-232,"x_max":463,"o":"m -232 -20 l 406 971 l 463 971 l -174 -20 l -232 -20 z "},"₣":{"ha":688,"x_min":33,"x_max":723,"o":"m 168 242 l 36 242 l 36 283 l 168 283 l 168 779 q 98 939 168 939 l 33 939 l 33 972 l 653 972 l 723 816 l 690 816 q 561 939 650 939 l 347 939 q 277 779 277 939 l 277 541 l 522 541 q 590 583 590 541 l 590 623 l 624 623 l 624 391 l 590 391 l 590 431 q 522 473 590 473 l 277 473 l 277 283 l 409 283 l 409 242 l 277 242 l 277 193 q 347 34 277 34 l 412 34 l 412 0 l 33 0 l 33 34 l 98 34 q 168 193 168 34 l 168 242 z "},"₤":{"ha":688,"x_min":52,"x_max":635,"o":"m 524 910 q 502 922 524 910 q 399 935 479 935 l 397 935 q 271 869 330 935 q 212 703 212 803 q 235 538 212 610 l 492 538 l 492 497 l 248 497 q 266 456 256 477 l 505 456 l 505 416 l 287 416 q 311 322 311 373 q 201 68 311 213 l 473 68 q 602 157 562 68 l 635 157 l 565 0 l 77 0 l 78 34 q 205 317 205 195 q 182 414 205 370 l 180 416 l 64 416 l 64 456 l 161 456 q 143 497 151 477 l 52 497 l 52 538 l 128 538 q 104 669 104 610 q 188 904 104 822 q 398 986 271 986 q 524 977 449 986 q 599 954 599 967 l 599 844 l 573 844 q 524 910 570 886 z "},"₧":{"ha":1375,"x_min":33,"x_max":1334,"o":"m 277 939 l 277 490 q 282 478 279 484 q 355 374 310 409 q 434 345 394 345 q 447 345 441 345 q 533 396 493 351 q 592 516 573 441 q 607 637 607 575 q 606 669 607 654 q 573 818 602 748 q 499 916 544 887 q 423 939 461 939 q 409 939 416 939 l 277 939 m 1015 616 l 893 616 l 893 151 q 916 71 893 96 q 971 45 935 50 l 923 176 l 956 176 q 1034 58 994 88 q 1120 28 1072 28 l 1124 28 q 1227 64 1187 28 q 1267 156 1267 100 q 1091 309 1267 225 q 994 385 1023 345 q 964 484 964 426 q 1014 615 964 566 l 1015 616 m 705 617 q 672 486 700 549 q 576 365 638 408 q 448 322 515 322 q 318 366 380 322 q 277 400 296 380 l 277 193 q 347 34 277 34 l 412 34 l 412 0 l 33 0 l 33 34 l 98 34 q 168 193 168 34 l 168 779 q 98 939 168 939 l 33 939 l 33 972 l 452 972 q 574 930 514 971 q 671 810 636 888 q 706 650 705 734 l 713 650 q 859 890 859 650 l 893 890 l 893 650 l 1069 650 q 1143 663 1097 663 l 1145 663 q 1235 654 1181 663 q 1289 631 1289 645 l 1289 524 l 1261 524 q 1216 597 1258 568 q 1126 625 1175 625 q 1056 601 1082 625 q 1030 535 1030 576 q 1190 386 1030 462 q 1303 306 1272 349 q 1334 202 1334 264 q 1278 45 1334 107 q 1123 -13 1208 -12 q 1052 -5 1084 -13 q 1014 -1 1033 -1 q 989 -3 1002 -1 q 949 -7 970 -7 q 832 32 865 -7 q 793 151 798 71 l 792 151 l 792 617 l 705 617 z "},"€":{"ha":1356,"x_min":0,"x_max":1235,"o":"m 617 976 l 1235 976 l 1235 851 l 623 851 q 353 672 448 851 l 966 672 l 966 547 l 328 547 l 328 428 l 966 428 l 966 304 l 353 304 q 652 125 441 125 l 1235 125 l 1235 0 l 647 0 q 219 304 329 0 l 0 304 l 0 428 l 204 428 l 204 547 l 0 547 l 0 672 l 219 672 q 353 881 225 743 q 617 976 481 976 z "},"№":{"ha":1729,"x_min":0,"x_max":1651,"o":"m 1090 123 l 1649 123 l 1649 1 l 1090 1 l 1090 123 m 0 970 l 230 970 q 448 659 270 926 l 819 124 l 854 124 l 854 970 l 978 970 l 978 0 l 755 0 q 171 846 724 35 l 124 846 l 124 0 l 0 0 l 0 970 m 1440 215 l 1302 215 q 1114 336 1186 215 q 1090 435 1090 389 q 1235 642 1090 572 q 1295 654 1277 654 l 1442 654 q 1588 589 1520 654 q 1651 433 1651 523 q 1516 231 1651 300 q 1440 215 1474 215 m 1554 435 q 1463 553 1554 515 q 1429 559 1440 559 l 1318 559 q 1208 490 1251 559 q 1194 434 1194 461 q 1267 323 1194 364 q 1324 311 1295 311 l 1429 311 q 1539 378 1495 311 q 1554 435 1554 409 z "},"™":{"ha":1015,"x_min":0,"x_max":0,"o":""},"∂":{"ha":688,"x_min":52,"x_max":635,"o":"m 157 364 q 161 311 157 336 q 202 155 170 228 q 283 43 235 81 q 370 7 326 7 q 378 7 374 7 q 465 55 426 11 q 519 177 504 100 q 530 278 530 227 q 527 336 530 307 q 485 493 517 418 q 404 605 452 567 q 317 639 359 639 l 309 639 q 224 592 263 635 q 168 471 184 548 q 157 364 157 414 m 635 323 q 597 153 635 234 q 489 28 559 73 q 344 -17 420 -17 q 198 28 268 -17 q 91 153 129 73 q 52 323 52 234 q 92 494 52 412 q 201 619 131 575 q 344 663 271 663 q 488 619 418 663 q 524 591 507 607 q 366 847 467 751 q 144 952 264 943 l 144 989 q 494 796 352 989 q 635 323 635 603 z "},"∆":{"ha":733,"x_min":4,"x_max":728,"o":"m 349 810 l 73 83 l 616 83 l 349 810 m 371 972 l 728 0 l 4 0 l 371 972 z "},"∏":{"ha":1027,"x_min":33,"x_max":995,"o":"m 347 939 q 277 779 277 939 l 277 -90 q 347 -249 277 -249 l 412 -249 l 412 -283 l 33 -283 l 33 -249 l 98 -249 q 168 -90 168 -249 l 168 779 q 98 939 168 939 l 33 939 l 33 972 l 995 972 l 995 939 l 929 939 q 860 779 860 939 l 860 -90 q 929 -249 860 -249 l 995 -249 l 995 -283 l 615 -283 l 615 -249 l 680 -249 q 750 -90 750 -249 l 750 779 q 680 939 750 939 l 347 939 z "},"∑":{"ha":818,"x_min":81,"x_max":776,"o":"m 718 372 l 184 -248 l 614 -248 q 743 -125 703 -248 l 776 -125 l 706 -282 l 81 -282 l 81 -248 q 153 -212 123 -248 l 603 317 l 153 900 q 81 939 123 939 l 81 972 l 706 972 l 776 815 l 743 815 q 614 939 703 939 l 286 939 l 718 372 z "},"−":{"ha":1019,"x_min":1,"x_max":834,"o":"m 1 649 l 834 649 l 834 538 l 1 538 l 1 649 z "},"√":{"ha":688,"x_min":12,"x_max":715,"o":"m 123 0 l 12 243 l 62 267 l 119 142 l 613 1139 l 715 1139 l 715 1098 l 666 1098 l 123 0 z "},"∞":{"ha":688,"x_min":45,"x_max":645,"o":"m 305 412 q 180 280 262 280 q 84 337 124 280 q 45 486 45 393 q 84 632 45 572 q 180 692 124 692 q 305 561 269 692 q 365 684 318 634 q 471 734 412 734 q 594 663 543 734 q 645 486 645 591 q 591 310 645 381 q 471 239 536 239 q 378 279 425 239 q 305 412 330 319 m 316 466 q 375 365 324 401 q 463 330 427 330 q 575 384 518 330 q 632 508 632 437 q 593 607 631 570 q 494 644 555 644 q 388 607 439 644 q 316 466 338 570 m 298 512 q 259 593 288 568 q 191 617 230 617 q 95 571 135 617 q 54 467 54 524 q 85 389 56 422 q 163 355 114 355 q 242 385 208 355 q 298 512 276 416 z "},"∫":{"ha":451,"x_min":-49,"x_max":492,"o":"m -8 -191 q -49 -171 -49 -191 l -49 -63 l -24 -63 q -1 -107 -24 -92 q 42 -121 22 -121 l 43 -121 q 121 -12 98 -121 q 148 203 142 98 l 195 701 l 201 743 q 292 1034 219 904 q 451 1164 366 1164 q 492 1144 492 1164 l 492 1036 l 467 1036 q 444 1080 467 1065 q 401 1095 420 1095 q 322 989 353 1095 q 289 743 292 884 l 239 222 q 151 -62 226 66 q -8 -191 76 -191 z "},"≈":{"ha":688,"x_min":64,"x_max":626,"o":"m 626 714 l 626 608 q 543 542 583 559 q 465 525 503 525 q 344 558 424 525 q 224 591 264 591 q 152 572 190 591 q 64 496 113 553 l 64 602 q 147 669 107 651 q 224 686 187 686 q 348 653 268 686 q 465 619 427 619 q 538 638 500 619 q 626 714 576 657 m 626 478 l 626 372 q 543 306 583 323 q 465 289 503 289 q 344 322 424 289 q 224 355 264 355 q 152 336 190 355 q 64 260 113 317 l 64 366 q 147 433 107 415 q 224 450 187 450 q 348 417 268 450 q 465 383 427 383 q 538 402 500 383 q 626 478 576 421 z "},"≤":{"ha":712,"x_min":0,"x_max":621,"o":"m 347 728 l 613 728 l 613 722 q 272 488 599 722 q 619 248 357 415 l 619 241 l 354 241 q 0 481 10 481 q 347 728 5 494 m 0 117 l 621 117 l 621 1 l 0 1 l 0 117 z "},"≥":{"ha":688,"x_min":0,"x_max":621,"o":"m 273 728 q 621 481 615 494 q 267 241 610 481 l 1 241 l 1 248 q 349 488 264 415 q 8 722 22 722 l 8 728 l 273 728 m 621 117 l 621 1 l 0 1 l 0 117 l 621 117 z "},"ﬁ":{"ha":728,"x_min":0,"x_max":0,"o":""},"ﬂ":{"ha":733,"x_min":0,"x_max":0,"o":""},"Ё":{"ha":1356,"x_min":0,"x_max":1237,"o":"m 437 1172 l 562 1172 l 562 1042 l 437 1042 l 437 1172 m 675 1172 l 800 1172 l 800 1042 l 675 1042 l 675 1172 m 0 974 l 1237 974 l 1237 850 l 0 850 l 0 974 m 0 616 l 1237 616 l 1237 492 l 124 492 l 124 447 q 353 134 124 210 q 452 124 402 124 l 1232 124 l 1232 0 l 432 0 q 25 283 142 0 q 0 442 0 340 l 0 616 z "},"Ђ":{"ha":555,"x_min":0,"x_max":0,"o":""},"Ѓ":{"ha":555,"x_min":0,"x_max":0,"o":""},"Є":{"ha":555,"x_min":0,"x_max":0,"o":""},"Ѕ":{"ha":555,"x_min":0,"x_max":0,"o":""},"І":{"ha":555,"x_min":0,"x_max":0,"o":""},"Ї":{"ha":555,"x_min":0,"x_max":0,"o":""},"Ј":{"ha":555,"x_min":0,"x_max":0,"o":""},"Љ":{"ha":555,"x_min":0,"x_max":0,"o":""},"Њ":{"ha":555,"x_min":0,"x_max":0,"o":""},"Ћ":{"ha":555,"x_min":0,"x_max":0,"o":""},"Ќ":{"ha":555,"x_min":0,"x_max":0,"o":""},"Ѝ":{"ha":555,"x_min":0,"x_max":0,"o":""},"Ў":{"ha":555,"x_min":0,"x_max":0,"o":""},"Џ":{"ha":555,"x_min":0,"x_max":0,"o":""},"А":{"ha":1356,"x_min":0,"x_max":1234,"o":"m 396 971 l 1234 971 l 1234 847 l 406 847 q 134 639 228 847 q 129 614 134 623 l 1224 614 q 1234 604 1234 613 l 1234 0 l 1110 0 l 1110 490 l 124 490 l 124 0 l 0 0 l 0 555 q 273 946 0 817 q 396 971 348 971 z "},"Б":{"ha":1356,"x_min":0,"x_max":1234,"o":"m 205 975 l 774 975 l 774 850 l 330 850 l 330 614 l 774 614 q 1224 300 1118 614 q 1234 205 1234 239 l 1234 0 l 205 0 l 205 490 l 0 490 l 0 614 l 205 614 l 205 975 m 330 490 l 330 125 l 1109 125 l 1109 200 q 890 479 1109 391 q 785 490 827 490 l 330 490 z "},"В":{"ha":1356,"x_min":0,"x_max":1238,"o":"m 205 973 l 833 973 l 833 614 q 1068 529 935 614 q 1238 135 1238 404 l 1238 0 l 205 0 l 205 489 l 0 489 l 0 614 l 205 614 l 205 973 m 330 848 l 330 614 l 709 614 l 709 848 l 330 848 m 330 489 l 330 125 l 1113 125 l 1113 135 q 928 464 1113 384 q 783 489 863 489 l 330 489 z "},"Г":{"ha":1085,"x_min":0,"x_max":960,"o":"m 0 970 l 960 970 l 960 855 l 125 855 q 115 846 115 854 l 115 0 l 0 0 l 0 970 z "},"Д":{"ha":1356,"x_min":0,"x_max":1234,"o":"m 200 975 l 804 975 q 1194 730 1068 975 q 1234 550 1234 652 l 1234 0 l 0 0 l 0 125 l 200 125 l 200 975 m 325 850 l 325 125 l 1109 125 l 1109 540 q 869 844 1109 770 q 800 850 827 850 l 325 850 z "},"Е":{"ha":1356,"x_min":0,"x_max":1233,"o":"m 0 973 l 1233 973 l 1233 848 l 0 848 l 0 973 m 0 614 l 1233 614 l 1233 489 l 125 489 l 125 399 q 319 140 125 237 q 409 125 376 125 l 1227 125 l 1227 0 l 394 0 q 80 170 220 0 q 0 389 0 283 l 0 614 z "},"Ж":{"ha":1356,"x_min":0,"x_max":1232,"o":"m 0 973 l 124 973 l 124 909 q 313 635 124 730 q 402 616 363 616 l 551 616 l 551 973 l 675 973 l 675 616 l 829 616 q 1078 785 977 616 q 1107 924 1107 846 l 1107 973 l 1232 973 l 1232 913 q 1033 556 1232 682 q 1232 189 1232 408 l 1232 0 l 1107 0 l 1107 179 q 903 471 1107 390 q 749 492 861 492 l 675 492 l 675 0 l 551 0 l 551 492 l 492 492 q 194 377 265 492 q 124 194 124 297 l 124 0 l 0 0 l 0 194 q 199 556 0 410 q 25 770 75 625 q 0 903 0 829 l 0 973 z "},"З":{"ha":1356,"x_min":0,"x_max":1226,"o":"m 258 973 l 794 973 q 1018 785 951 973 q 1023 730 1023 741 q 988 606 1023 669 q 1226 303 1226 531 l 1226 293 q 1027 20 1226 106 q 894 0 966 0 l 342 0 q 20 179 104 0 q 0 283 0 246 l 0 313 q 75 308 50 308 l 124 308 l 124 298 q 328 124 124 142 l 873 124 q 1102 313 1102 124 q 954 486 1102 435 q 854 492 886 492 l 258 492 l 258 616 l 789 616 q 899 730 871 616 q 785 849 876 849 l 258 849 l 258 973 z "},"И":{"ha":1356,"x_min":0,"x_max":1240,"o":"m 0 976 l 125 976 l 125 125 l 289 125 q 876 976 318 159 l 1240 976 l 1240 0 l 1110 0 l 1110 851 l 951 851 q 363 0 925 831 l 0 0 l 0 976 z "},"Й":{"ha":1356,"x_min":0,"x_max":1239,"o":"m 438 1168 l 802 1168 l 802 1044 l 438 1044 l 438 1168 m 0 975 l 124 975 l 124 124 l 289 124 q 876 975 325 171 l 1239 975 l 1239 0 l 1110 0 l 1110 851 l 941 851 q 368 10 892 773 q 363 0 363 10 l 0 0 l 0 975 z "},"К":{"ha":1356,"x_min":0,"x_max":1232,"o":"m 203 973 l 328 973 l 328 616 l 581 616 q 844 800 753 616 q 869 928 869 854 l 869 973 l 993 973 l 993 918 q 869 610 993 741 q 1097 501 996 591 q 1232 189 1232 371 l 1232 0 l 1107 0 l 1107 169 q 879 481 1107 404 q 749 492 813 492 l 328 492 l 328 0 l 203 0 l 203 492 l 0 492 l 0 616 l 203 616 l 203 973 z "},"Л":{"ha":983,"x_min":0,"x_max":883,"o":"m 647 976 l 883 0 l 760 0 q 673 344 747 0 q 549 847 642 448 l 334 847 q 128 0 149 74 l 0 0 l 236 976 l 647 976 z "},"М":{"ha":1356,"x_min":0,"x_max":1237,"o":"m 0 975 l 318 975 q 513 241 318 960 l 724 241 q 919 975 724 253 l 1237 975 l 1237 0 l 1114 0 l 1114 847 l 1021 847 q 919 477 1009 847 q 816 113 909 451 l 416 113 l 220 847 l 128 847 l 128 0 l 0 0 l 0 975 z "},"Н":{"ha":1356,"x_min":0,"x_max":1234,"o":"m 0 973 l 123 973 l 123 625 l 1112 625 l 1112 973 l 1234 973 l 1234 0 l 1112 0 l 1112 502 l 123 502 l 123 0 l 0 0 l 0 973 z "},"О":{"ha":1356,"x_min":0,"x_max":1232,"o":"m 0 973 l 824 973 q 1206 705 1073 973 q 1232 581 1232 625 l 1232 0 l 437 0 q 25 283 146 0 q 0 422 0 354 l 0 973 m 124 849 l 124 432 q 368 129 124 202 q 447 124 418 124 l 1107 124 l 1107 566 q 894 839 1107 754 q 824 849 857 849 l 124 849 z "},"П":{"ha":1356,"x_min":0,"x_max":1234,"o":"m 0 973 l 1234 973 l 1234 0 l 1112 0 l 1112 845 l 128 845 l 128 0 l 0 0 l 0 973 z "},"Р":{"ha":1356,"x_min":0,"x_max":1241,"o":"m 0 979 l 808 979 q 1215 701 1096 979 q 1241 566 1241 642 l 1241 489 l 129 489 l 129 0 l 0 0 l 0 613 l 1107 613 q 979 804 1107 702 q 840 850 905 850 l 0 850 l 0 979 z "},"С":{"ha":1356,"x_min":0,"x_max":1236,"o":"m 432 973 l 1236 973 l 1236 849 l 452 849 q 139 631 212 849 q 124 522 124 593 l 124 447 q 318 144 124 226 q 417 124 367 124 l 1236 124 l 1236 0 l 407 0 q 30 263 161 0 q 0 442 0 342 l 0 541 q 293 954 0 833 q 432 973 364 973 z "},"Т":{"ha":1356,"x_min":0,"x_max":1232,"o":"m 0 973 l 1232 973 l 1232 849 l 680 849 l 680 10 q 670 0 680 0 l 556 0 l 556 849 l 0 849 l 0 973 z "},"У":{"ha":1356,"x_min":0,"x_max":1232,"o":"m 0 973 l 124 973 l 124 610 l 1107 610 l 1107 973 l 1232 973 l 1232 412 q 1003 45 1232 179 q 824 0 917 0 l 0 0 l 0 124 l 819 124 q 1097 342 1010 124 q 1107 417 1107 389 l 1107 486 l 0 486 l 0 973 z "},"Ф":{"ha":1356,"x_min":0,"x_max":1232,"o":"m 0 973 l 789 973 q 1211 680 1099 973 q 1232 556 1232 616 l 1232 357 l 675 357 l 675 0 l 551 0 l 551 357 l 447 357 q 20 646 134 357 q 0 770 0 710 l 0 973 m 124 849 l 124 774 q 347 492 124 578 q 452 481 410 481 l 551 481 l 551 849 l 124 849 m 675 849 l 675 481 l 1107 481 l 1107 536 q 854 844 1107 779 q 785 849 823 849 l 675 849 z "},"Х":{"ha":1356,"x_min":0,"x_max":1235,"o":"m 0 976 l 234 976 q 612 777 492 976 l 623 777 q 1001 976 745 976 l 1235 976 l 1235 851 l 1006 851 q 692 632 770 851 q 682 563 682 595 l 682 404 q 866 144 682 248 q 970 125 928 125 l 1235 125 l 1235 0 l 966 0 q 617 194 763 0 q 283 0 471 0 l 0 0 l 0 125 l 264 125 q 547 349 461 125 q 557 478 557 414 l 557 503 q 359 831 557 754 q 229 851 300 851 l 0 851 l 0 976 z "},"Ц":{"ha":1356,"x_min":0,"x_max":1238,"o":"m 0 973 l 120 973 l 120 120 l 908 120 l 908 973 l 1028 973 l 1028 120 l 1238 120 l 1238 0 l 0 0 l 0 973 z "},"Ч":{"ha":1153,"x_min":0,"x_max":1033,"o":"m 0 973 l 124 973 q 368 631 124 743 q 501 610 435 610 l 909 610 l 909 973 l 1033 973 l 1033 0 l 909 0 l 909 486 l 496 486 q 45 770 188 486 q 0 973 0 864 z "},"Ш":{"ha":1221,"x_min":0,"x_max":1088,"o":"m 0 973 l 120 973 l 120 120 l 484 120 l 484 973 l 604 973 l 604 120 l 968 120 l 968 973 l 1088 973 l 1088 0 l 0 0 l 0 973 z "},"Щ":{"ha":1356,"x_min":0,"x_max":1233,"o":"m 0 973 l 115 973 l 115 120 l 479 120 l 479 973 l 599 973 l 599 120 l 963 120 l 963 973 l 1083 973 l 1083 120 l 1233 120 l 1233 0 l 0 0 l 0 973 z "},"Ъ":{"ha":1356,"x_min":0,"x_max":1236,"o":"m 0 973 l 328 973 l 328 610 l 819 610 q 1211 332 1086 610 q 1236 179 1236 256 l 1236 0 l 203 0 l 203 486 l 0 486 l 0 610 l 203 610 l 203 849 l 0 849 l 0 973 m 328 486 l 328 124 l 1112 124 l 1112 159 q 888 477 1112 401 q 800 486 839 486 l 328 486 z "},"Ы":{"ha":1356,"x_min":0,"x_max":1236,"o":"m 0 973 l 124 973 l 124 610 l 522 610 q 884 392 747 610 q 933 203 933 300 l 933 0 l 0 0 l 0 973 m 1107 973 l 1236 973 l 1236 0 l 1107 0 l 1107 973 m 124 486 l 124 124 l 809 124 l 809 199 q 586 477 809 393 q 501 486 546 486 l 124 486 z "},"Ь":{"ha":1153,"x_min":0,"x_max":1031,"o":"m 0 976 l 125 976 l 125 612 l 617 612 q 981 393 844 612 q 1031 204 1031 302 l 1031 0 l 0 0 l 0 976 m 125 488 l 125 125 l 906 125 l 906 199 q 682 478 906 394 q 597 488 642 488 l 125 488 z "},"Э":{"ha":1356,"x_min":0,"x_max":1247,"o":"m 0 976 l 1247 976 l 1247 860 q 231 855 583 855 l 5 855 l 5 941 l 0 976 m 5 614 l 1242 614 l 1242 412 q 966 25 1242 157 q 795 0 889 0 l 5 0 l 5 121 l 830 121 q 1041 216 943 121 q 1126 468 1126 299 l 1126 488 q 1116 498 1126 498 l 5 498 l 5 614 z "},"Ю":{"ha":1356,"x_min":0,"x_max":1238,"o":"m 0 973 l 125 973 l 125 614 l 304 614 q 444 873 313 734 q 724 973 575 973 l 1238 973 l 1238 409 q 968 25 1238 155 q 848 0 895 0 l 300 0 l 300 489 l 125 489 l 125 0 l 0 0 l 0 973 m 424 534 l 424 125 l 828 125 q 1083 294 988 125 q 1113 414 1113 350 l 1113 848 l 734 848 q 429 599 498 848 q 424 534 424 566 z "},"Я":{"ha":1356,"x_min":0,"x_max":1242,"o":"m 409 973 l 1242 973 l 1242 848 l 409 848 q 165 694 267 848 q 135 614 150 669 l 1242 614 l 1242 0 l 1118 0 l 1118 489 l 544 489 q 214 60 520 471 q 165 0 169 0 l 0 0 l 0 5 l 364 484 l 364 489 l 5 489 l 5 569 q 250 938 5 803 q 409 973 334 973 z "},"а":{"ha":1356,"x_min":0,"x_max":1235,"o":"m 0 976 l 831 976 q 1195 736 1063 976 q 1235 572 1235 661 l 1235 0 l 448 0 q 25 294 147 0 q 0 438 0 355 l 0 617 l 1105 617 q 966 812 1070 744 q 821 851 885 851 l 0 851 l 0 976 m 125 493 l 125 458 q 393 130 125 195 q 478 125 431 125 l 1110 125 l 1110 493 l 125 493 z "},"б":{"ha":1153,"x_min":0,"x_max":1031,"o":"m 0 976 l 446 976 l 446 850 l 125 850 l 125 616 l 581 616 q 1021 300 909 616 q 1031 205 1031 240 l 1031 0 l 0 0 l 0 976 m 125 490 l 125 125 l 905 125 l 905 200 q 686 480 905 390 q 581 490 623 490 l 125 490 z "},"в":{"ha":1153,"x_min":0,"x_max":1031,"o":"m 0 976 l 446 976 l 446 616 l 570 616 q 986 380 868 616 q 1031 200 1031 297 l 1031 0 l 0 0 l 0 976 m 125 850 l 125 616 l 320 616 l 320 850 l 125 850 m 125 490 l 125 125 l 905 125 l 905 195 q 696 475 905 387 q 566 490 646 490 l 125 490 z "},"г":{"ha":1085,"x_min":0,"x_max":963,"o":"m 0 973 l 963 973 l 963 858 l 125 858 q 115 848 115 856 l 115 0 l 0 0 l 0 973 z "},"д":{"ha":1356,"x_min":0,"x_max":1238,"o":"m 205 973 l 599 973 q 1018 654 906 973 q 1028 559 1028 593 l 1028 125 l 1238 125 l 1238 0 l 0 0 l 0 125 l 205 125 l 205 973 m 330 848 l 330 125 l 903 125 l 903 554 q 699 833 903 741 q 594 848 646 848 l 330 848 z "},"е":{"ha":1356,"x_min":0,"x_max":1230,"o":"m 0 971 l 802 971 q 1220 652 1110 971 q 1230 563 1230 603 l 1230 488 l 125 488 l 125 433 q 359 130 125 206 q 413 125 393 125 l 1230 125 l 1230 0 l 408 0 q 40 239 176 0 q 0 429 0 328 l 0 612 l 1101 612 q 797 846 1024 846 l 0 846 l 0 971 z "},"ж":{"ha":1356,"x_min":0,"x_max":1232,"o":"m 0 973 l 124 973 l 124 928 q 338 626 124 710 q 402 616 382 616 l 556 616 l 556 854 l 680 854 l 680 616 l 825 616 q 1082 795 987 616 q 1107 919 1107 848 l 1107 973 l 1232 973 l 1232 899 q 1038 551 1232 697 q 1232 203 1232 408 l 1232 0 l 1107 0 l 1107 184 q 854 487 1107 418 q 740 492 787 492 l 680 492 l 680 119 l 556 119 l 556 492 l 481 492 q 144 293 216 492 q 124 174 124 243 l 124 0 l 0 0 l 0 184 q 199 556 0 410 q 0 919 0 683 l 0 973 z "},"з":{"ha":1085,"x_min":0,"x_max":968,"o":"m 0 973 l 536 973 q 755 800 684 973 q 764 725 764 752 q 730 606 764 674 q 968 303 968 531 q 734 10 968 82 q 635 0 685 0 l 0 0 l 0 124 l 616 124 q 834 243 791 124 q 844 308 844 283 q 720 477 844 425 q 596 492 684 492 l 0 492 l 0 616 l 531 616 q 640 730 614 616 q 526 849 618 849 l 0 849 l 0 973 z "},"и":{"ha":1356,"x_min":0,"x_max":1223,"o":"m 0 971 l 124 971 l 124 411 q 342 134 124 223 q 446 124 404 124 l 1100 124 l 1100 971 l 1223 971 l 1223 0 l 441 0 q 10 312 120 0 q 0 391 0 368 l 0 971 z "},"й":{"ha":1356,"x_min":0,"x_max":1234,"o":"m 433 1172 l 802 1172 l 802 1047 l 433 1047 l 433 1172 m 0 975 l 124 975 l 124 468 q 334 139 124 218 q 453 124 397 124 l 1110 124 l 1110 975 l 1234 975 l 1234 0 l 433 0 q 35 259 161 0 q 0 448 0 330 l 0 975 z "},"к":{"ha":1356,"x_min":0,"x_max":1235,"o":"m 203 972 l 332 972 l 332 615 l 585 615 q 863 833 774 615 q 873 937 873 895 l 873 972 l 997 972 l 997 918 q 873 610 997 742 q 1121 481 981 610 q 1235 189 1235 359 l 1235 0 l 1111 0 l 1111 178 q 883 481 1111 401 q 769 491 829 491 l 332 491 l 332 0 l 203 0 l 203 491 l 0 491 l 0 615 l 203 615 l 203 972 z "},"л":{"ha":983,"x_min":0,"x_max":883,"o":"m 647 976 l 883 0 l 760 0 q 673 344 747 0 q 549 847 642 448 l 334 847 q 128 0 149 74 l 0 0 l 236 976 l 647 976 z "},"м":{"ha":1356,"x_min":0,"x_max":1237,"o":"m 0 975 l 318 975 q 513 241 318 960 l 724 241 q 919 975 724 253 l 1237 975 l 1237 0 l 1114 0 l 1114 847 l 1021 847 q 919 477 1009 847 q 816 113 909 451 l 416 113 l 220 847 l 128 847 l 128 0 l 0 0 l 0 975 z "},"н":{"ha":1356,"x_min":0,"x_max":1234,"o":"m 0 973 l 123 973 l 123 625 l 1112 625 l 1112 973 l 1234 973 l 1234 0 l 1112 0 l 1112 502 l 123 502 l 123 0 l 0 0 l 0 973 z "},"о":{"ha":1356,"x_min":0,"x_max":1232,"o":"m 447 973 l 785 973 q 1202 700 1086 973 q 1232 496 1232 637 l 1232 462 q 954 25 1232 133 q 824 0 897 0 l 402 0 q 40 238 171 0 q 0 392 0 320 l 0 566 q 273 948 0 816 q 447 973 359 973 m 124 556 l 124 412 q 208 214 124 305 q 412 124 300 124 l 819 124 q 1097 347 1009 124 l 1102 397 l 1102 566 q 903 834 1102 737 q 764 849 831 849 l 452 849 q 144 655 226 849 q 124 556 124 606 z "},"п":{"ha":1356,"x_min":0,"x_max":1234,"o":"m 0 973 l 1234 973 l 1234 0 l 1112 0 l 1112 845 l 128 845 l 128 0 l 0 0 l 0 973 z "},"р":{"ha":1356,"x_min":0,"x_max":1234,"o":"m 0 973 l 804 973 q 1224 656 1114 973 q 1234 564 1234 604 l 1234 486 l 343 486 l 343 610 l 1106 610 q 983 789 1059 751 q 835 845 915 845 l 128 845 l 128 0 l 0 0 l 0 973 z "},"с":{"ha":1356,"x_min":0,"x_max":1236,"o":"m 432 973 l 1236 973 l 1236 849 l 452 849 q 139 631 212 849 q 124 522 124 593 l 124 447 q 318 144 124 226 q 417 124 367 124 l 1236 124 l 1236 0 l 407 0 q 30 263 161 0 q 0 442 0 342 l 0 541 q 293 954 0 833 q 432 973 364 973 z "},"т":{"ha":1356,"x_min":0,"x_max":1232,"o":"m 0 973 l 839 973 q 1196 730 1053 973 q 1232 566 1232 640 l 1232 0 l 1107 0 l 1107 546 q 873 844 1107 765 q 819 849 840 849 l 680 849 l 680 0 l 551 0 l 551 849 l 124 849 l 124 0 l 0 0 l 0 973 z "},"у":{"ha":1356,"x_min":0,"x_max":1234,"o":"m 0 975 l 124 975 l 124 970 q 368 632 124 743 q 517 612 433 612 l 1110 612 l 1110 975 l 1234 975 l 1234 393 q 1070 85 1234 227 q 826 0 955 0 l 0 0 l 0 124 l 821 124 q 1080 294 984 124 q 1110 413 1110 349 l 1110 488 l 498 488 q 10 861 134 488 q 0 970 0 935 l 0 975 z "},"ф":{"ha":1356,"x_min":0,"x_max":1232,"o":"m 556 973 l 680 973 l 680 854 l 829 854 q 1206 586 1077 854 q 1232 462 1232 510 l 1232 243 l 680 243 l 680 0 l 556 0 l 556 243 l 412 243 q 30 507 160 243 q 0 670 0 586 l 0 854 l 556 854 l 556 973 m 124 730 l 124 680 q 372 372 124 439 q 432 368 398 368 l 556 368 l 556 730 l 124 730 m 680 730 l 680 368 l 1107 368 l 1107 442 q 894 720 1107 632 q 824 730 857 730 l 680 730 z "},"х":{"ha":1356,"x_min":0,"x_max":1236,"o":"m 0 973 l 30 973 q 516 740 297 973 l 621 601 q 804 824 661 690 q 1206 973 998 973 l 1236 973 l 1236 849 l 1221 849 q 695 481 897 849 q 888 243 795 328 q 1236 124 1056 124 l 1236 0 l 1232 0 q 670 298 887 0 q 616 372 621 372 l 610 372 q 0 0 391 0 l 0 124 q 541 492 332 124 q 432 646 534 492 q 10 849 250 849 l 0 849 l 0 973 z "},"ц":{"ha":1356,"x_min":0,"x_max":1236,"o":"m 0 973 l 124 973 l 124 392 q 308 134 124 201 q 362 124 327 124 l 903 124 l 903 973 l 1027 973 l 1027 124 l 1236 124 l 1236 0 l 347 0 q 64 164 189 0 q 0 382 0 257 l 0 973 z "},"ч":{"ha":1153,"x_min":0,"x_max":1033,"o":"m 0 973 l 124 973 q 368 631 124 743 q 501 610 435 610 l 909 610 l 909 973 l 1033 973 l 1033 0 l 909 0 l 909 486 l 496 486 q 45 770 188 486 q 0 973 0 864 z "},"ш":{"ha":1187,"x_min":0,"x_max":1088,"o":"m 0 974 l 124 974 l 124 388 q 313 134 124 206 q 368 124 332 124 l 467 124 l 467 974 l 591 974 l 591 124 l 964 124 l 964 974 l 1088 974 l 1088 0 l 358 0 q 64 169 189 0 q 0 388 0 263 l 0 974 z "},"щ":{"ha":1356,"x_min":0,"x_max":1240,"o":"m 0 976 l 125 976 l 125 404 q 363 125 125 170 l 483 125 l 483 976 l 608 976 l 608 125 l 966 125 l 966 976 l 1090 976 l 1090 125 l 1240 125 l 1240 0 l 359 0 q 75 155 201 0 q 0 393 0 258 l 0 976 z "},"ъ":{"ha":1356,"x_min":0,"x_max":1236,"o":"m 0 973 l 328 973 l 328 610 l 819 610 q 1211 332 1086 610 q 1236 179 1236 256 l 1236 0 l 203 0 l 203 486 l 0 486 l 0 610 l 203 610 l 203 849 l 0 849 l 0 973 m 328 486 l 328 124 l 1112 124 l 1112 159 q 888 477 1112 401 q 800 486 839 486 l 328 486 z "},"ы":{"ha":1356,"x_min":0,"x_max":1236,"o":"m 0 973 l 124 973 l 124 610 l 522 610 q 884 392 747 610 q 933 203 933 300 l 933 0 l 0 0 l 0 973 m 1107 973 l 1236 973 l 1236 0 l 1107 0 l 1107 973 m 124 486 l 124 124 l 809 124 l 809 199 q 586 477 809 393 q 501 486 546 486 l 124 486 z "},"ь":{"ha":1153,"x_min":0,"x_max":1031,"o":"m 0 976 l 125 976 l 125 612 l 617 612 q 981 393 844 612 q 1031 204 1031 302 l 1031 0 l 0 0 l 0 976 m 125 488 l 125 125 l 906 125 l 906 199 q 682 478 906 394 q 597 488 642 488 l 125 488 z "},"э":{"ha":1356,"x_min":0,"x_max":1232,"o":"m 0 973 l 770 973 q 1217 661 1112 973 q 1232 481 1232 575 q 993 40 1232 154 q 839 0 907 0 l 0 0 l 0 124 l 819 124 q 1093 332 1001 124 q 1102 407 1102 379 l 1102 486 l 0 486 l 0 610 l 1097 610 q 993 779 1068 724 q 760 849 916 849 l 0 849 l 0 973 z "},"ю":{"ha":1356,"x_min":0,"x_max":1238,"o":"m 0 973 l 125 973 l 125 614 l 304 614 q 444 873 313 734 q 724 973 575 973 l 1238 973 l 1238 409 q 968 25 1238 155 q 848 0 895 0 l 300 0 l 300 489 l 125 489 l 125 0 l 0 0 l 0 973 m 424 534 l 424 125 l 828 125 q 1083 294 988 125 q 1113 414 1113 350 l 1113 848 l 734 848 q 429 599 498 848 q 424 534 424 566 z "},"я":{"ha":1356,"x_min":0,"x_max":1242,"o":"m 409 973 l 1242 973 l 1242 848 l 409 848 q 165 694 267 848 q 135 614 150 669 l 1242 614 l 1242 0 l 1118 0 l 1118 489 l 544 489 q 214 60 520 471 q 165 0 169 0 l 0 0 l 0 5 l 364 484 l 364 489 l 5 489 l 5 569 q 250 938 5 803 q 409 973 334 973 z "},"ѐ":{"ha":555,"x_min":0,"x_max":0,"o":""},"ё":{"ha":1356,"x_min":0,"x_max":1242,"o":"m 384 1175 l 509 1175 l 509 1050 l 384 1050 l 384 1175 m 623 1175 l 748 1175 l 748 1050 l 623 1050 l 623 1175 m 0 978 l 828 978 q 1207 723 1074 978 q 1242 519 1242 644 l 1242 494 l 264 494 l 264 618 l 1107 618 q 1013 778 1084 718 q 823 853 923 853 l 130 853 l 130 409 q 349 135 130 226 q 454 125 412 125 l 1237 125 l 1237 0 l 434 0 q 15 319 125 0 q 0 464 0 376 l 0 978 z "},"₽":{"ha":1356,"x_min":0,"x_max":1236,"o":"m 208 973 l 809 973 q 1221 665 1105 973 q 1236 516 1236 597 l 1236 486 l 332 486 l 332 382 l 561 382 l 561 258 l 332 258 l 332 0 l 203 0 l 203 258 l 0 258 l 0 382 l 203 382 l 203 486 l 0 486 l 0 610 l 203 610 l 203 824 q 208 973 203 873 m 332 849 l 332 610 l 1102 610 q 983 794 1102 690 q 800 849 901 849 l 332 849 z "}}}
